<?xml version="1.0" encoding="utf-8" ?>
<svg baseProfile="full" height="200mm" version="1.1" viewBox="0,0,200,200" width="200mm" xmlns="http://www.w3.org/2000/svg" xmlns:ev="http://www.w3.org/2001/xml-events" xmlns:xlink="http://www.w3.org/1999/xlink"><defs /><rect fill="#1a1a1a" height="200" width="200" x="0" y="0" /><text alignment-baseline="middle" fill="#e1ed5e" style="dominant-baseline: central; font-size:9.0px; font-family:Arial;" text-anchor="middle" x="100.0" y="100.0">2024</text><line stroke="#e1ed5e" stroke-width="0.3" x1="100.0" x2="100.0" y1="15.0" y2="10.0" /><path d="M 100.0 14.0 a86.0,86.0 0 0,1 42.35913384403234,11.155469271406648" fill="none" id="id13" stroke="none" /><text fill="#e1ed5e" style="font-size:6.75px; font-family:Arial;" text-anchor="middle"><textPath startOffset="22.145653131862478" xlink:href="#id13">January</textPath></text><path d="M 101.08105385017728 79.02784411241856 l 0.5565397865636453 -10.796723178535519 a31.811057669254865,31.811057669254865 0 0,0 0.5451137508057767,0.03279268961162091 l -0.7417978895018844 10.785578511099207" fill="#ff710a" stroke="none" /><path d="M 101.44090949804482 79.04949213459386 l 0.7604641318591914 -11.056981578297375 a32.08310188163277,32.08310188163277 0 0,0 0.5491267409544698,0.042505882670105695 l -0.9501598675888946 11.042297928632216" fill="#ff750a" stroke="none" /><path d="M 102.15924093988457 79.11130261209362 l 1.6063584664377364 -15.54006099185626 a36.62286411492172,36.62286411492172 0 0,0 0.6247932091870937,0.07000938228333715 l -1.8728875772256268 15.510195849065951" fill="#ffb310" stroke="none" /><path d="M 104.9986988182912 79.60360301121754 l 1.4577663381472628 -5.948184123623502 a27.124212362839973,27.124212362839973 0 0,0 0.45128839166698115,0.11471574441221899 l -1.5596600230396382 5.922283147376016" fill="#ff2e04" stroke="none" /><path d="M 109.3889696526874 81.21577127319529 l 5.21448031171611 -10.43245366531345 a32.663056820584686,32.663056820584686 0 0,0 0.4993913524148745,0.25499278284729837 l -5.392798885844563 10.341402930793317" fill="#ff7d0b" stroke="none" /><path d="M 110.34350942703115 81.72400993836675 l 4.778621571247281 -8.443366437718682 a30.701838017756433,30.701838017756433 0 0,0 0.4564450037939793,0.2635286458107137 l -4.922859042901657 8.360090894631796" fill="#ff6209" stroke="none" /><line stroke="#e1ed5e" stroke-width="0.3" x1="143.13028292997686" x2="145.6673583964461" y1="26.7553504044142" y2="22.446841604673864" /><path d="M 143.63769802327073 25.89364864446614 a86.0,86.0 0 0,1 29.32050498858742,28.57503671076993" fill="none" id="id14" stroke="none" /><text fill="#e1ed5e" style="font-size:6.75px; font-family:Arial;" text-anchor="middle"><textPath startOffset="20.669276256404974" xlink:href="#id14">February</textPath></text><path d="M 110.96478420261332 82.08984904055464 l 6.998294765195965 -11.43118855667789 a34.40329069441131,34.40329069441131 0 0,0 0.5010362086679075,0.3126836506865473 l -7.193495102653586 11.309369109149799" fill="#ff950d" stroke="none" /><path d="M 112.45986205192187 83.09580414077388 l 5.686733949123261 -7.715146770863525 a30.58448917282903,30.58448917282903 0 0,0 0.4199498113655371,0.3151381675166643 l -5.818336749399565 7.616389576082845" fill="#ff6008" stroke="none" /><line stroke="#e1ed5e" stroke-width="0.3" x1="172.87174338648825" x2="177.1583165268699" y1="56.24261187166439" y2="53.66864786411523" /><path d="M 173.72905801456457 55.72781907015455 a86.0,86.0 0 0,1 12.242430191666344,42.057860355516425" fill="none" id="id15" stroke="none" /><text fill="#e1ed5e" style="font-size:6.75px; font-family:Arial;" text-anchor="middle"><textPath startOffset="22.145653131862474" xlink:href="#id15">March</textPath></text><path d="M 118.8641267826498 90.77261029715802 l 5.569517484025702 -2.7243300935172217 a27.20012092328138,27.20012092328138 0 0,0 0.20156680960291296,0.42119710793183324 l -5.615463551588526 2.6283204835202847" fill="#ff2f04" stroke="none" /><path d="M 119.0197475246899 91.09779779509293 l 9.174236130654787 -4.294005743485008 a31.12941725402276,31.12941725402276 0 0,0 0.22237600895774381,0.48593171205261765 l -9.246596604467582 4.135885049217706" fill="#ff6809" stroke="none" /><path d="M 119.31412917781788 91.75594674310238 l 35.88351214262704 -15.316537568160342 a60.0156733476039,60.0156733476039 0 0,0 0.3963153721930126,0.9510126197178159 l -36.14115335935654 14.698292439001248" fill="#38ff2e" stroke="none" /><path d="M 119.58574465831526 92.42381321644754 l 8.614543474106378 -3.332290477255552 a30.236585900216422,30.236585900216422 0 0,0 0.18310314060554517,0.48570283441795653 l -8.670477298526363 3.1839193626434374" fill="#ff5b08" stroke="none" /><path d="M 119.71291397450082 92.76114493625339 l 8.912459270593347 -3.272778494585996 a30.494367241928757,30.494367241928757 0 0,0 0.17622815348085816,0.49294150980560414 l -8.967327594118148 3.119302028399475" fill="#ff5f08" stroke="none" /><path d="M 120.26092885502905 94.47779374421319 l 60.782786565087164 -16.56661876736044 a84.0,84.0 0 0,0 0.3672420767810789,1.3944779825088056 l -61.058218122672976 15.520760280478832" fill="#4dd2ff" stroke="none" /><path d="M 120.77682067341334 96.94652285012252 l 4.0692990210754925 -0.5980468220902008 a25.11301039681863,25.11301039681863 0 0,0 0.05902213185185511,0.42705474423794 l -4.07896566948256 0.5281037696521751" fill="#ff1001" stroke="none" /><path d="M 120.99303781780057 99.45929381324524 l 29.792410963395177 -0.7673468254598652 a50.80229139113925,50.80229139113925 0 0,0 0.014971116915169771,0.8719925051321091 l -29.801193511909013 0.25580740435868965" fill="#9bff22" stroke="none" /><line stroke="#e1ed5e" stroke-width="0.3" x1="184.99686870605535" x2="189.99668451229388" y1="99.2704041080226" y2="99.22748670261217" /><path d="M 185.99683186730306 99.26182062694052 a86.0,86.0 0 0,1 -10.086455211305974,41.156179273409016" fill="none" id="id16" stroke="none" /><text fill="#e1ed5e" style="font-size:6.75px; font-family:Arial;" text-anchor="middle"><textPath startOffset="21.40746469413373" xlink:href="#id16">April</textPath></text><path d="M 120.86939407059847 102.33845913500097 l 9.530206180199203 1.067879480599148 a30.589848613100823,30.589848613100823 0 0,0 -0.06295378279480661,0.5213476305040231 l -9.510470311144733 -1.2313207880265797" fill="#ff6008" stroke="none" /><path d="M 120.77682067341334 103.0534771498775 l 14.794468246961578 2.174277356809071 a35.95338666438767,35.95338666438767 0 0,0 -0.09498286879600662,0.6098581537830035 l -14.754963886027305 -2.4279236925235255" fill="#ffaa0f" stroke="none" /><path d="M 120.7213421655516 103.40968896794604 l 6.0900123424033605 1.0021092134209815 a27.171910012811956,27.171910012811956 0 0,0 -0.07968509701064809,0.45960246406693533 l -6.071912427900478 -1.1065047104085048" fill="#ff2f04" stroke="none" /><path d="M 120.592083275326 104.11899336999214 l 37.23149001070086 7.447340730831294 a58.96902332662794,58.96902332662794 0 0,0 -0.20707194145509497,0.9909142007492361 l -37.0981603584214 -8.08537138286594" fill="#43ff2d" stroke="none" /><path d="M 120.51834098615036 104.47187691870673 l 9.153357921140573 1.9949317561219484 a30.368228965182837,30.368228965182837 0 0,0 -0.11538356310245378,0.5084012687255687 l -9.117763496480455 -2.1517673587865342" fill="#ff5d08" stroke="none" /><path d="M 120.43855184770803 104.8234425847677 l 7.957155972105124 1.8778671432044027 a29.175739487773257,29.175739487773257 0 0,0 -0.11922106529342867,0.48646263068548923 l -7.923747380295399 -2.0141855984979915" fill="#ff4c07" stroke="none" /><path d="M 120.35273937422433 105.17358676015961 l 7.751736616806209 1.9704611350618975 a28.998258414250166,28.998258414250166 0 0,0 -0.1267783409890908,0.4813980105925242 l -7.716768795012388 -2.103239650027225" fill="#ff4906" stroke="none" /><path d="M 120.16314734710363 105.8691983318838 l 7.719464863213605 2.247023716995108 a29.039854063297913,29.039854063297913 0 0,0 -0.14343431095251463,0.47744617167951925 l -7.67975423225746 -2.379207492265351" fill="#ff4a06" stroke="none" /><path d="M 119.94978838288452 106.5578916946017 l 7.960270109783317 2.6166988961406803 a29.379320577097737,29.379320577097737 0 0,0 -0.16160665861684703,0.47776137057931994 l -7.914178029594105 -2.752961941194161" fill="#ff4f07" stroke="none" /><path d="M 119.83427380445688 106.89939002012753 l 59.35118509014019 20.645423075769013 a83.83945150605291,83.83945150605291 0 0,0 -0.4845115037325547,1.3552649077381844 l -58.9880334163637 -21.66122293988812" fill="#4dd4ff" stroke="none" /><path d="M 119.4528033332814 107.91128576633889 l 7.293569023515332 2.9662310266010214 a28.87366976726564,28.87366976726564 0 0,0 -0.1906681795289511,0.45753422055591575 l -7.241574999449895 -3.090997756598215" fill="#ff4706" stroke="none" /><path d="M 119.31412917781788 108.2440532568976 l 7.862555273514395 3.3560573098267494 a29.548853495990592,29.548853495990592 0 0,0 -0.20313587000312258,0.4648146240172537 l -7.803785521494306 -3.490534003619848" fill="#ff5107" stroke="none" /><path d="M 119.0197475246899 108.90220220490707 l 7.232411304681281 3.3851336764460163 a28.985418166100665,28.985418166100665 0 0,0 -0.2147967753976587,0.4488426480967129 l -7.17323527132371 -3.5087888266078324" fill="#ff4906" stroke="none" /><path d="M 118.70294669586154 109.54985784667822 l 7.172091762582316 3.66212115715159 a29.052951733405486,29.052951733405486 0 0,0 -0.23061393459137886,0.442232627166029 l -7.108169759015988 -3.784700027422122" fill="#ff4a06" stroke="none" /><line stroke="#e1ed5e" stroke-width="0.3" x1="174.33088141563837" x2="178.70328620479359" y1="141.23008692659167" y2="143.65538615756765" /><path d="M 175.20536237346943 141.71514677278685 a86.0,86.0 0 0,1 -30.301960400862466,31.631185727798858" fill="none" id="id17" stroke="none" /><text fill="#e1ed5e" style="font-size:6.75px; font-family:Arial;" text-anchor="middle"><textPath startOffset="22.145653131862474" xlink:href="#id17">May</textPath></text><path d="M 117.423217284605 111.72311816256416 l 7.209041002575713 4.8505645158107225 a29.68897279883301,29.68897279883301 0 0,0 -0.2881389218958548,0.4204032981820588 l -7.124712343864538 -4.973602549062825" fill="#ff5307" stroke="none" /><path d="M 117.21940702142032 112.02048342749411 l 6.633987202296179 4.631038288613012 a29.090506895790227,29.090506895790227 0 0,0 -0.2893603650781258,0.40702159107368485 l -6.553511738688092 -4.744237106396201" fill="#ff4b06" stroke="none" /><path d="M 116.79662413953412 112.60449989151573 l 6.452127599741057 4.841796836994505 a29.066780471419207,29.066780471419207 0 0,0 -0.3029146395641244,0.39652498688000365 l -6.368060982822628 -4.951842737115387" fill="#ff4a06" stroke="none" /><path d="M 116.57777611688842 112.89097897827486 l 5.264798389905266 4.09393907183871 a27.669215786753092,27.669215786753092 0 0,0 -0.2947872575866248,0.3724540700207669 l -5.19374470167708 -4.183713085774159" fill="#ff3605" stroke="none" /><path d="M 113.86319453409587 115.77377054828091 l 4.373608817867582 4.97636398243622 a27.62515302294351,27.62515302294351 0 0,0 -0.35889088663572244,0.31000140006746096 l -4.287538451469004 -5.050709514968398" fill="#ff3505" stroke="none" /><line stroke="#e1ed5e" stroke-width="0.3" x1="143.1302829299769" x2="145.66735839644613" y1="173.24464959558577" y2="177.55315839532614" /><path d="M 143.63769802327073 174.10635135553383 a86.0,86.0 0 0,1 -40.68552437913181,11.842963189579606" fill="none" id="id18" stroke="none" /><text fill="#e1ed5e" style="font-size:6.75px; font-family:Arial;" text-anchor="middle"><textPath startOffset="21.407464694133747" xlink:href="#id18">June</textPath></text><path d="M 106.0420521117495 120.11202640906438 l 1.9622594904183188 6.5317236532909 a27.820108224265695,27.820108224265695 0 0,0 -0.45855485315665173,0.1334786347038638 l -1.8498446248800602 -6.564445982297282" fill="#ff3805" stroke="none" /><path d="M 105.3480935250658 120.30758222061773 l 2.3664449911503938 8.985777081705823 a30.292160763689488,30.292160763689488 0 0,0 -0.5039962203618291,0.1281138683540863 l -2.2118434775631672 -9.02507618189518" fill="#ff5c08" stroke="none" /><path d="M 104.9986988182912 120.39639698878246 l 2.2082183148156487 9.010284280795481 a30.276931116842327,30.276931116842327 0 0,0 -0.5058667434444049,0.1193831740491499 l -2.0532194176313645 -9.046863598490857" fill="#ff5c08" stroke="none" /><path d="M 100.72087961077811 120.9876233191556 l 0.3170649376880632 9.230999712595386 a30.236443356002745,30.236443356002745 0 0,0 -0.5188957912075003,0.01336491493141754 l -0.15855583240981913 -9.235082344876849" fill="#ff5b08" stroke="none" /><line stroke="#e1ed5e" stroke-width="0.3" x1="101.45913802915013" x2="101.54496967792366" y1="184.9874750549273" y2="189.98673829345242" /><path d="M 101.47630435890484 185.9873277026323 a86.0,86.0 0 0,1 -42.54439059252881,-10.42667462771756" fill="none" id="id19" stroke="none" /><text fill="#e1ed5e" style="font-size:6.75px; font-family:Arial;" text-anchor="middle"><textPath startOffset="22.145653131862474" xlink:href="#id19">July</textPath></text><path d="M 99.63950707515114 120.99690560180557 l -0.11561716456503186 6.734120208706615 a27.735112643011465,27.735112643011465 0 0,0 -0.4759697775852149,-0.0122592930895574 l 0.23120025622099066 -6.73114319826701" fill="#ff3705" stroke="none" /><path d="M 98.91894614982273 120.97215588758144 l -0.15671840657538344 3.0402952199035838 a24.044331730138506,24.044331730138506 0 0,0 -0.41202326534720807,-0.024786296499262207 l 0.20888602405503784 -3.0371569455796297" fill="#ff0000" stroke="none" /><path d="M 98.55909050195518 120.95050786540614 l -0.8304740470926018 12.074910380726779 a33.103435373706,33.103435373706 0 0,0 -0.5665905263221026,-0.043857690106258646 l 1.0376335681899405 -12.058874923625465" fill="#ff830c" stroke="none" /><path d="M 97.12497278360702 120.80226474461374 l -0.6777854263196411 4.904117706416475 a25.95073363881747,25.95073363881747 0 0,0 -0.44076072285849144,-0.06477664783111425 l 0.7618712547858175 -4.891759985286478" fill="#ff1d02" stroke="none" /><path d="M 96.76829788921471 120.74984581791261 l -1.071168241803344 6.877668516626663 a27.960583713083672,27.960583713083672 0 0,0 -0.47362898354818894,-0.07793546900588716 l 1.1890747284045964 -6.858267049125108" fill="#ff3a05" stroke="none" /><path d="M 94.30408787586889 120.21278271476187 l -1.2466057581135441 4.423764055798843 a25.596054213946967,25.596054213946967 0 0,0 -0.4218960899378726,-0.1228078030014198 l 1.3223618604330236 -4.401712558494908" fill="#ff1702" stroke="none" /><path d="M 93.61358852112213 120.00534299687104 l -3.6808342192615475 11.530160766259545 a33.103435373706,33.103435373706 0 0,0 -0.5398654248210322,-0.17746448822854988 l 3.8782223817303234 -11.465275356628974" fill="#ff830c" stroke="none" /><path d="M 93.27111125876986 119.89276391827306 l -1.889390391099388 5.585646968614115 a26.896545438472153,26.896545438472153 0 0,0 -0.4361008797013603,-0.1516985238201319 l 1.9849970428457702 -5.552390012225392" fill="#ff2b04" stroke="none" /><path d="M 91.26138138417905 119.09545874513695 l -3.2267995593969667 7.051139381885271 a28.754405327250947,28.754405327250947 0 0,0 -0.44707799358386613,-0.20925507528852455 l 3.3473662668523225 -6.99470807502622" fill="#ff4606" stroke="none" /><path d="M 90.93487009805054 118.94263497670748 l -3.0940065557538308 6.465283722915094 a28.16748004425813,28.16748004425813 0 0,0 -0.43436903411658034,-0.2124716610962995 l 3.2045358391324807 -6.411218311721573" fill="#ff3d05" stroke="none" /><path d="M 90.6110303473126 118.78422872680471 l -2.675952607935371 5.353697765458222 a26.98521529468978,26.98521529468978 0 0,0 -0.41258181177729425,-0.21066721285528334 l 2.7674616414262476 -5.306972600930102" fill="#ff2c04" stroke="none" /><line stroke="#e1ed5e" stroke-width="0.3" x1="58.13341422392154" x2="55.67067388415222" y1="173.97424548756322" y2="178.32567169271397" /><path d="M 57.64086615596768 174.84453072859336 a86.0,86.0 0 0,1 -31.369924170532247,-30.572349798747897" fill="none" id="id20" stroke="none" /><text fill="#e1ed5e" style="font-size:6.75px; font-family:Arial;" text-anchor="middle"><textPath startOffset="22.145653131862474" xlink:href="#id20">August</textPath></text><path d="M 89.03521579738668 117.91015095944536 l -5.856623742663455 9.5663547412793 a32.216736811529735,32.216736811529735 0 0,0 -0.46919208430032067,-0.29281056189991433 l 6.019979955753488 -9.464408382537838" fill="#ff770a" stroke="none" /><path d="M 88.72937992617639 117.7192867562869 l -6.067568730107271 9.539225840107308 a32.30540666774736,32.30540666774736 0 0,0 -0.4653737939416085,-0.30164967074628407 l 6.230428156305889 -9.43366232765713" fill="#ff780b" stroke="none" /><path d="M 87.54013794807813 116.9041958592261 l -3.4196629276809123 4.63942952668054 a26.763540654145714,26.763540654145714 0 0,0 -0.3674850930375291,-0.27576766479062537 l 3.498801009629208 -4.5800428346259" fill="#ff2903" stroke="none" /><path d="M 86.96720088162412 116.46651593811092 l -13.390476023427073 16.918429023260476 a42.57633167962241,42.57633167962241 0 0,0 -0.5692034438168025,-0.45851000254115587 l 13.678930237599138 -16.68607072692591" fill="#feff18" stroke="none" /><path d="M 86.40962598614128 116.0094264158162 l -2.8883100471848473 3.402421973031441 a25.463049429620526,25.463049429620526 0 0,0 -0.33080201867681036,-0.2857389049252801 l 2.9462915456245202 -3.352338935641439" fill="#ff1502" stroke="none" /><path d="M 85.86807049272751 115.53346607816431 l -4.027744791924054 4.427197083360661 a26.98521529468978,26.98521529468978 0 0,0 -0.339975456269424,-0.31467620678412755 l 4.103150019507445 -4.357403130444156" fill="#ff2c04" stroke="none" /><path d="M 85.08716467003676 114.78537596483092 l -6.433186708266292 6.3782025368816715 a30.059103643567497,30.059103643567497 0 0,0 -0.36015558201416076,-0.3695513551215774 l 6.541729091431263 -6.266828489692357" fill="#ff5808" stroke="none" /><path d="M 84.83555147118756 114.52719865689866 l -12.058978586162027 11.55222870041168 a37.69948958765296,37.69948958765296 0 0,0 -0.4436766153671097,-0.4711691903815853 l 12.25551103526539 -11.343518050085605" fill="#ffc112" stroke="none" /><path d="M 83.8745106332314 113.45245675266167 l -4.595929790111469 3.8340880908182617 a26.98521529468978,26.98521529468978 0 0,0 -0.29369318043484394,-0.3582579262873514 l 4.661069789784943 -3.7546278828324153" fill="#ff2c04" stroke="none" /><path d="M 83.4222238831116 112.89097897827486 l -23.904171044404155 18.588027987214655 a51.280755898319406,51.280755898319406 0 0,0 -0.5344139061011558,-0.699564958003257 l 24.219736927859604 -18.17494211597053" fill="#96ff23" stroke="none" /><path d="M 82.98947788004972 112.3143062007846 l -4.800290006156036 3.475039776647633 a26.926102057211363,26.926102057211363 0 0,0 -0.2678312464377533,-0.3767381895406082 l 4.859236351123751 -3.3921243603975206" fill="#ff2b04" stroke="none" /><path d="M 81.99639281039703 110.81064883170644 l -5.1065482502543915 3.0663355012292217 a26.95644595696753,26.95644595696753 0 0,0 -0.23481155461883005,-0.3987613544518945 l 5.158433515002992 -2.9782229784837684" fill="#ff2b04" stroke="none" /><line stroke="#e1ed5e" stroke-width="0.3" x1="26.387840678322732" x2="22.057713659400548" y1="142.50000000000003" y2="145.00000000000006" /><path d="M 25.521815274538298 143.00000000000003 a86.0,86.0 0 0,1 -11.493303480769221,-40.785679425670985" fill="none" id="id21" stroke="none" /><text fill="#e1ed5e" style="font-size:6.75px; font-family:Arial;" text-anchor="middle"><textPath startOffset="21.40746469413373" xlink:href="#id21">September</textPath></text><path d="M 81.81346652052679 110.50000000000001 l -54.191839387895286 31.287673058482348 a83.57534611696464,83.57534611696464 0 0,0 -0.7066758560553823,-1.2486285252771583 l 54.72094860897205 -30.35278776310607" fill="#4cd6ff" stroke="none" /><path d="M 80.83023694016515 108.57439118712176 l -11.669125524753296 5.219451421937625 a33.7832376047078,33.7832376047078 0 0,0 -0.2322454698042881,-0.5314230850766604 l 11.757004876574554 -5.018366267085115" fill="#ff8d0d" stroke="none" /><path d="M 80.68587082218212 108.24405325689762 l -10.778387129622686 4.600652543119651 a32.71919933009629,32.71919933009629 0 0,0 -0.21606225402588053,-0.5184707549603167 l 10.855775228185053 -4.414949278718053" fill="#ff7e0b" stroke="none" /><path d="M 80.41425534168474 107.57618678355246 l -4.989466578746038 1.9300328586089126 a26.34974799179679,26.34974799179679 0 0,0 -0.159565687322797,-0.4232669431677946 l 5.02186294988327 -1.8440976352469731" fill="#ff2203" stroke="none" /><path d="M 80.16572619554312 106.89939002012753 l -5.192358895151331 1.8061719574566726 a26.497531085492835,26.497531085492835 0 0,0 -0.14575481584351416,-0.4308982141078406 l 5.222599132567213 -1.7167720688746704" fill="#ff2503" stroke="none" /><path d="M 79.2786578344484 103.40968896794605 l -11.07956297984318 1.8231378720650095 a32.22855945902542,32.22855945902542 0 0,0 -0.08514249472951686,-0.5466758932680862 l 11.109226966710965 -1.6326737968654734" fill="#ff770b" stroke="none" /><path d="M 79.17382384314188 102.69636545807758 l -5.510650167200237 0.7134639912039322 a26.556644322971252,26.556644322971252 0 0,0 -0.05465346493252506,-0.4526090915660821 l 5.522085718392423 -0.6187612227144509" fill="#ff2603" stroke="none" /><path d="M 79.03789590574601 101.26102812881392 l -24.074677983206954 1.4482728447705249 a45.11820089119438,45.11820089119438 0 0,0 -0.03987248071998162,-0.7735154739488141 l 24.095992053383505 -1.03478557744498" fill="#deff1b" stroke="none" /><line stroke="#e1ed5e" stroke-width="0.3" x1="15.003131293944662" x2="10.003315487706104" y1="100.72959589197737" y2="100.7725132973878" /><path d="M 14.003168132696942 100.73817937305945 a86.0,86.0 0 0,1 10.791469493833604,-42.45332614584628" fill="none" id="id22" stroke="none" /><text fill="#e1ed5e" style="font-size:6.75px; font-family:Arial;" text-anchor="middle"><textPath startOffset="22.145653131862435" xlink:href="#id22">October</textPath></text><path d="M 79.00696218219943 99.45929381324524 l -13.345426023001734 -0.3437308348673778 a34.3498519325965,34.3498519325965 0 0,0 0.02024238901322489,-0.5893350697363781 l 13.337558946991658 0.5727721691678944" fill="#ff940d" stroke="none" /><path d="M 79.01933749520258 99.09900007780938 l -14.779465714115737 -0.634693849891173 a35.793087678974,35.793087678974 0 0,0 0.03163156265539873,-0.6136438650748149 l 14.76639256200377 0.8883095083426998" fill="#ffa80f" stroke="none" /><path d="M 79.06263194458094 98.37931529534042 l -6.203112283617878 -0.4801601219759555 a27.22166824460345,27.22166824460345 0 0,0 0.040063007122122796,-0.46559287089444573 l 6.193955653798012 0.586574040246082" fill="#ff2f04" stroke="none" /><path d="M 79.0935383218832 98.0201363427161 l -21.21540155053856 -2.00912058440582 a42.31032211096954,42.31032211096954 0 0,0 0.07468297209446684,-0.7224900080831886 l 21.17778618596243 2.3730151147719214" fill="#fffd17" stroke="none" /><path d="M 79.2786578344484 96.59031103205396 l -12.863889666579574 -2.116748149351541 a34.03688153208872,34.03688153208872 0 0,0 0.09981750291185157,-0.5757208313263964 l 12.82565734617549 2.3372620135985303" fill="#ff900d" stroke="none" /><path d="M 79.407916724674 95.88100663000787 l -17.4329695800253 -3.4870821547929047 a38.778306171634085,38.778306171634085 0 0,0 0.13617147940237534,-0.651629823570817 l 17.370540389798556 3.785828429649131" fill="#ffd013" stroke="none" /><path d="M 79.73907114497095 94.47779374421319 l -13.71346254504548 -3.737665197711376 a35.21369748181479,35.21369748181479 0 0,0 0.16396421140006395,-0.5818511426793406 l 13.647279841570835 3.97252426429373" fill="#ffa00e" stroke="none" /><path d="M 79.94057633289273 93.78553927170692 l -35.999361660068615 -11.152694264439832 a58.68735370503595,58.68735370503595 0 0,0 0.30639070017772646,-0.9597645044293134 l 35.80260624411363 11.769027802560537" fill="#46ff2c" stroke="none" /><path d="M 80.05021161711548 93.44210830539832 l -58.45066575152935 -19.213894810270187 a82.52766922756894,82.52766922756894 0 0,0 0.45395947235418727,-1.3420505167030976 l 58.1122208576028 20.214447001447446" fill="#4be0ff" stroke="none" /><path d="M 80.5471966667186 92.08871423366112 l -9.581165294983672 -3.8965765151936123 a31.34321211948,31.34321211948 0 0,0 0.20697587953251903,-0.49666676395473935 l 9.512863570914675 4.060475788589615" fill="#ff6b09" stroke="none" /><path d="M 80.83023694016515 91.42560881287825 l -12.937215466171585 -5.786651923281121 a35.17239868545062,35.17239868545062 0 0,0 0.25125743862521543,-0.5490428481442343 l 12.835973562691324 6.0078837536400265" fill="#ffa00e" stroke="none" /><path d="M 80.9802524753101 91.09779779509293 l -18.20325760715349 -8.520043696507232 a41.098500742661976,41.098500742661976 0 0,0 0.30456091344325964,-0.6364151726372573 l 18.054317435750324 8.831271371209576" fill="#ffee16" stroke="none" /><path d="M 81.29705330413844 90.45014215332179 l -6.985368236817442 -3.5667787944382443 a28.843295249599645,28.843295249599645 0 0,0 0.22894974201341461,-0.43904131846576394 l 6.923110425829088 3.6861663560084947" fill="#ff4706" stroke="none" /><path d="M 81.46374523516351 90.13048839642627 l -20.626610809513714 -10.982508457591898 a44.36819559803935,44.36819559803935 0 0,0 0.36372339054181924,-0.6692100715776963 l 20.435042069356545 11.334973362644213" fill="#e8ff1a" stroke="none" /><line stroke="#e1ed5e" stroke-width="0.3" x1="26.387840678322718" x2="22.05771365940052" y1="57.49999999999999" y2="54.99999999999999" /><path d="M 25.521815274538284 56.99999999999999 a86.0,86.0 0 0,1 29.574782752854787,-30.34633250058573" fill="none" id="id23" stroke="none" /><text fill="#e1ed5e" style="font-size:6.75px; font-family:Arial;" text-anchor="middle"><textPath startOffset="21.40746469413373" xlink:href="#id23">November</textPath></text><path d="M 81.99639281039701 89.18935116829357 l -9.120888810495469 -5.476831666281287 a31.638904915178202,31.638904915178202 0 0,0 0.2835931178374411,-0.4632280451372409 l 9.025527728202636 5.632596827543071" fill="#ff6f0a" stroke="none" /><path d="M 82.576782715395 88.27688183743585 l -15.914920870054312 -10.70826902172418 a40.18206797354519,40.18206797354519 0 0,0 0.38997704042824827,-0.5689881565898637 l 15.72875409281075 10.979891913384078" fill="#ffe215" stroke="none" /><path d="M 82.98947788004972 87.6856937992154 l -6.236785768596747 -4.514951929260389 a28.69949918156389,28.69949918156389 0 0,0 0.29232213875677915,-0.3965911233158696 l 6.15836161025615 4.621349361845121" fill="#ff4506" stroke="none" /><path d="M 83.42222388311158 87.10902102172516 l -28.406089533668595 -22.088747034077223 a56.9835888722936,56.9835888722936 0 0,0 0.607101987297716,-0.7670535284934574 l 28.02272111572932 22.573120506485363" fill="#58ff2a" stroke="none" /><path d="M 84.10781606972428 86.27271002978789 l -7.013335468657428 -6.057952139178629 a30.26745156537153,30.26745156537153 0 0,0 0.3430151711775049,-0.3902882983735121 l 6.908309233521331 6.177452715363441" fill="#ff5b08" stroke="none" /><path d="M 84.34580500576568 86.00192230759919 l -5.83971218019854 -5.2219066409857815 a28.833935621048376,28.833935621048376 0 0,0 0.33310376549733134,-0.36613938947253205 l 5.749210713859343 5.321383606015972" fill="#ff4706" stroke="none" /><path d="M 85.34317274990677 84.96080404539775 l -43.951282167120546 -45.0978874000945 a83.9724912329618,83.9724912329618 0 0,0 1.0409690427797522,-0.9972247953106033 l 43.17064063847549 45.84572432571067" fill="#4dd2ff" stroke="none" /><path d="M 87.25179093698888 83.31218511350988 l -37.95710735619347 -49.687071968772294 a83.52637139383313,83.52637139383313 0 0,0 1.146884739930582,-0.8606436900621877 l 37.098569627352134 50.33133468609848" fill="#4cd6ff" stroke="none" /><path d="M 88.12776184653039 82.6780497279521 l -3.525741843816806 -5.144162718200274 a27.236446553973053,27.236446553973053 0 0,0 0.3879296315876811,-0.26101636888158064 l 3.436915924132136 5.203928761138965" fill="#ff3004" stroke="none" /><line stroke="#e1ed5e" stroke-width="0.3" x1="56.869717070023135" x2="54.33264160355391" y1="26.7553504044142" y2="22.446841604673864" /><path d="M 56.362301976729285 25.89364864446614 a86.0,86.0 0 0,1 42.16139366436587,-11.88097634709845" fill="none" id="id24" stroke="none" /><text fill="#e1ed5e" style="font-size:6.75px; font-family:Arial;" text-anchor="middle"><textPath startOffset="22.145653131862474" xlink:href="#id24">December</textPath></text><path d="M 89.65649057296885 81.72400993836675 l -6.201731623934916 -10.957865541046198 a33.59111958290295,33.59111958290295 0 0,0 0.5042759845168338,-0.2797133880380378 l 6.012711451261979 11.062711844517382" fill="#ff8a0c" stroke="none" /><path d="M 90.28995756902619 81.37971332152246 l -4.708101409735027 -9.028405239607013 a31.18225515565743,31.18225515565743 0 0,0 0.4767511093363287,-0.24343251341327685 l 4.552423078685116 9.107895704693123" fill="#ff6809" stroke="none" /><path d="M 91.5904679813234 80.7573450057729 l -11.978096172905111 -27.40822814289697 a50.9112981640793,50.9112981640793 0 0,0 0.8038286070832723,-0.3431066337602795 l 11.505832490651407 27.609809426316655" fill="#9aff23" stroke="none" /><path d="M 92.592206182469 80.34994680014964 l -3.643942546591399 -9.665990531251659 a31.33003824935347,31.33003824935347 0 0,0 0.5048773725082075,-0.18539796446530596 l 3.477476022429064 9.727119344725686" fill="#ff6a09" stroke="none" /><path d="M 93.61358852112211 79.99465700312896 l -9.161703779558728 -28.698906600676057 a51.125803826930635,51.125803826930635 0 0,0 0.8383642595129399,-0.2597273906373905 l 8.667698887174172 28.85195057912009" fill="#98ff23" stroke="none" /><path d="M 93.95794788825049 79.88797359093562 l -5.740155985802513 -19.10711239218047 a40.950717648965934,40.950717648965934 0 0,0 0.6749848047607937,-0.19647823933192268 l 5.411311168660094 19.20283432581491" fill="#ffec16" stroke="none" /><path d="M 95.70440661134978 79.44403061299748 l -2.4756949091490577 -11.847096351923824 a33.103006124717666,33.103006124717666 0 0,0 0.5572394764084427,-0.11146350168341064 l 2.2719589472096384 11.8878492502701" fill="#ff830c" stroke="none" /><path d="M 96.05791012581881 79.37332000966035 l -7.449758833877469 -38.98028618728892 a60.68578609434218,60.68578609434218 0 0,0 1.0249114521340261,-0.1867730081756256 l 6.779512648192405 39.102427369395905" fill="#32ff2f" stroke="none" /><path d="M 97.48249496171623 79.15144685158666 l -0.9131039504473932 -7.561810582872322 a28.616740649094105,28.616740649094105 0 0,0 0.4882071803700694,-0.054704632863196954 l 0.7831608684765246 7.57637097624249" fill="#ff4406" stroke="none" /><path d="M 97.84075906011542 79.11130261209362 l -0.9314660698023084 -9.01108926743626 a30.059103643567497,30.059103643567497 0 0,0 0.5137250200919735,-0.04865029352059979 l 0.7766414863253193 9.025751316462042" fill="#ff5808" stroke="none" /><path d="M 98.5590905019552 79.04949213459386 l -2.201217550363727 -32.00522008144271 a53.08082715837628,53.08082715837628 0 0,0 0.9095921641152926,-0.0547188058765767 l 1.6514810341159503 32.038290865143985" fill="#82ff25" stroke="none" /></svg>