<?xml version="1.0" encoding="utf-8" ?>
<svg baseProfile="full" height="200mm" version="1.1" viewBox="0,0,200,200" width="200mm" xmlns="http://www.w3.org/2000/svg" xmlns:ev="http://www.w3.org/2001/xml-events" xmlns:xlink="http://www.w3.org/1999/xlink"><defs /><rect fill="#1a1a1a" height="200" width="200" x="0" y="0" /><text alignment-baseline="middle" fill="#e1ed5e" style="dominant-baseline: central; font-size:9.0px; font-family:Arial;" text-anchor="middle" x="100.0" y="100.0">2024</text><line stroke="#e1ed5e" stroke-width="0.3" x1="100.0" x2="100.0" y1="15.0" y2="10.0" /><path d="M 100.0 14.0 a86.0,86.0 0 0,1 42.35913384403234,11.155469271406648" fill="none" id="id13" stroke="none" /><text fill="#e1ed5e" style="font-size:6.75px; font-family:Arial;" text-anchor="middle"><textPath startOffset="22.145653131862478" xlink:href="#id13">January</textPath></text><path d="M 101.08105385017728 79.02784411241856 l 0.5707855579107577 -11.073087336881091 a32.08778874813711,32.08778874813711 0 0,0 0.5498558099332173,0.033077960113156134 l -0.7607857199764374 11.061657398943243" fill="#ff6809" stroke="none" /><path d="M 101.44090949804482 79.04949213459386 l 0.7698450894919018 -11.19337864343979 a32.21982116244411,32.21982116244411 0 0,0 0.5514667956466425,0.042687017702820074 l -0.9618808799137778 11.178513858741915" fill="#ff6a09" stroke="none" /><path d="M 102.15924093988457 79.11130261209362 l 1.621844163490048 -15.689871063345466 a36.77347242921013,36.77347242921013 0 0,0 0.6273626164218538,0.07029728972326266 l -1.8909426815126984 15.659718013115233" fill="#ffaa0f" stroke="none" /><path d="M 104.9986988182912 79.60360301121754 l 1.474327478401553 -6.015759227363976 a27.19378725782414,27.19378725782414 0 0,0 0.45244596785897484,0.11500999575355729 l -1.5773787394859222 5.98956399977515" fill="#ff1f03" stroke="none" /><path d="M 109.3889696526874 81.21577127319529 l 5.2616184720001575 -10.526761562483282 a32.768489195231,32.768489195231 0 0,0 0.5010033269600662,0.25581586853584665 l -5.441549020673802 10.434887742274602" fill="#ff710a" stroke="none" /><path d="M 110.34350942703115 81.72400993836675 l 4.732907047344499 -8.362593254263544 a30.60902570789866,30.60902570789866 0 0,0 0.4550651608314616,0.2627319931048647 l -4.875764676036358 8.280114363882507" fill="#ff5207" stroke="none" /><line stroke="#e1ed5e" stroke-width="0.3" x1="143.13028292997686" x2="145.6673583964461" y1="26.7553504044142" y2="22.446841604673864" /><path d="M 143.63769802327073 25.89364864446614 a86.0,86.0 0 0,1 29.32050498858742,28.57503671076993" fill="none" id="id14" stroke="none" /><text fill="#e1ed5e" style="font-size:6.75px; font-family:Arial;" text-anchor="middle"><textPath startOffset="20.669276256404974" xlink:href="#id14">February</textPath></text><path d="M 110.96478420261332 82.08984904055464 l 7.08687011754227 -11.575869738039426 a34.572932190760056,34.572932190760056 0 0,0 0.5035068017550139,0.3142254834971764 l -7.284541048086997 11.452508457700704" fill="#ff8b0c" stroke="none" /><path d="M 112.45986205192187 83.09580414077388 l 5.730886625595213 -7.775048356264768 a30.658904619970194,30.658904619970194 0 0,0 0.42097159573515724,0.31590493355661614 l -5.863511210241136 7.675524395444137" fill="#ff5307" stroke="none" /><line stroke="#e1ed5e" stroke-width="0.3" x1="172.87174338648825" x2="177.1583165268699" y1="56.24261187166439" y2="53.66864786411523" /><path d="M 173.72905801456457 55.72781907015455 a86.0,86.0 0 0,1 12.242430191666344,42.057860355516425" fill="none" id="id15" stroke="none" /><text fill="#e1ed5e" style="font-size:6.75px; font-family:Arial;" text-anchor="middle"><textPath startOffset="22.145653131862474" xlink:href="#id15">March</textPath></text><path d="M 118.8641267826498 90.77261029715802 l 5.600726911298087 -2.73959618832049 a27.234864008941877,27.234864008941877 0 0,0 0.20182427363963912,0.4217351087459511 l -5.646930442897638 2.6430485775094352" fill="#ff2003" stroke="none" /><path d="M 119.0197475246899 91.09779779509293 l 9.223762619904804 -4.31718664119306 a31.184100223546945,31.184100223546945 0 0,0 0.22276664204995741,0.48678531585715323 l -9.296513726809811 4.158212343121223" fill="#ff5b08" stroke="none" /><path d="M 119.31412917781788 91.75594674310238 l 36.4352699551365 -15.552050168773032 a60.61559239940387,60.61559239940387 0 0,0 0.4002769563765762,0.9605189795942848 l -36.69687275604956 14.92429867973747" fill="#37ff2e" stroke="none" /><path d="M 119.58574465831526 92.42381321644754 l 8.660890719574493 -3.3502185874548505 a30.286279806259316,30.286279806259316 0 0,0 0.18340407108411966,0.48650108826506694 l -8.717125474473054 3.2010492189956254" fill="#ff4d07" stroke="none" /><path d="M 119.71291397450082 92.76114493625339 l 8.703354344181626 -3.1959922692025833 a30.27160953800298,30.27160953800298 0 0,0 0.17494082790610418,0.48934063105895415 l -8.756935342131673 3.046116681762712" fill="#ff4d07" stroke="none" /><path d="M 120.26092885502905 94.47779374421319 l 60.54216916298059 -16.50103742443823 a83.75060543964233,83.75060543964233 0 0,0 0.3661517413491306,1.3903378012781362 l -60.81651038513445 15.459319118787295" fill="#4dd4ff" stroke="none" /><path d="M 120.77682067341334 96.94652285012252 l 4.084340539422397 -0.600257407304064 a25.12821348733234,25.12821348733234 0 0,0 0.05905786308433887,0.4273132776366989 l -4.094042919061948 0.5300558214672794" fill="#ff0000" stroke="none" /><path d="M 120.99303781780057 99.45929381324524 l 29.66518039622322 -0.7640698173674079 a50.67501862891207,50.67501862891207 0 0,0 0.014933610429709313,0.8698079403864938 l -29.673925438251597 0.2547149610118477" fill="#a4ff21" stroke="none" /><line stroke="#e1ed5e" stroke-width="0.3" x1="184.99686870605535" x2="189.99668451229388" y1="99.2704041080226" y2="99.22748670261217" /><path d="M 185.99683186730306 99.26182062694052 a86.0,86.0 0 0,1 -10.086455211305974,41.156179273409016" fill="none" id="id16" stroke="none" /><text fill="#e1ed5e" style="font-size:6.75px; font-family:Arial;" text-anchor="middle"><textPath startOffset="21.40746469413373" xlink:href="#id16">April</textPath></text><path d="M 120.86939407059847 102.33845913500097 l 9.581337870154606 1.07360889310915 a30.641300298062593,30.641300298062593 0 0,0 -0.06305967015111483,0.5222245297126308 l -9.561496113743827 -1.2379270997451894" fill="#ff5307" stroke="none" /><path d="M 120.77682067341334 103.0534771498775 l 14.740782700203937 2.166387430199034 a35.89912444113264,35.89912444113264 0 0,0 -0.09483951702555665,0.6089377325830931 l -14.701421691040112 -2.4191133447135775" fill="#ff9d0e" stroke="none" /><path d="M 120.7213421655516 103.40968896794604 l 6.166606577769876 1.0147127657030168 a27.24953427719821,27.24953427719821 0 0,0 -0.07991274008156517,0.46091544880619306 l -6.148279020196076 -1.1204212474297979" fill="#ff2003" stroke="none" /><path d="M 120.592083275326 104.11899336999214 l 37.560028943654196 7.513057718691409 a59.30407041728763,59.30407041728763 0 0,0 -0.2082484719049465,0.9965443248605929 l -37.425522760924885 -8.156718494837412" fill="#44ff2d" stroke="none" /><path d="M 120.51834098615036 104.47187691870673 l 9.251027341976608 2.016218351806996 a30.468191132637855,30.468191132637855 0 0,0 -0.11576336763664732,0.510074757581865 l -9.215053112782297 -2.174727443327878" fill="#ff5007" stroke="none" /><path d="M 120.43855184770803 104.8234425847677 l 8.072809157060906 1.9051609799466713 a29.294569672131146,29.294569672131146 0 0,0 -0.11970664205744178,0.48844394958613974 l -8.03891498848717 -2.0434607541409107" fill="#ff3f05" stroke="none" /><path d="M 120.35273937422433 105.17358676015961 l 7.797207250948647 1.9820195924493738 a29.045175111773474,29.045175111773474 0 0,0 -0.1269834574823547,0.48217687132714654 l -7.762034312661562 -2.1155769681493233" fill="#ff3b05" stroke="none" /><path d="M 120.16314734710363 105.8691983318838 l 7.772465098359577 2.2624513130123973 a29.09505402384501,29.09505402384501 0 0,0 -0.1437069558593527,0.47835371790143294 l -7.732481822496594 -2.3955426345045536" fill="#ff3c05" stroke="none" /><path d="M 119.94978838288452 106.5578916946017 l 7.890906889709307 2.5938978279737404 a29.306305886736215,29.306305886736215 0 0,0 -0.16120502713226917,0.47657401846040337 l -7.845216441004673 -2.7289735209083044" fill="#ff3f05" stroke="none" /><path d="M 119.83427380445688 106.89939002012753 l 59.22293202427089 20.600810001883215 a83.70366058122207,83.70366058122207 0 0,0 -0.48372676261126674,1.3530698471562426 l -58.86056509161568 -21.614414805420378" fill="#4dd5ff" stroke="none" /><path d="M 119.4528033332814 107.91128576633889 l 7.39536296616878 3.007629736895693 a28.98355998509687,28.98355998509687 0 0,0 -0.19139384301235338,0.45927554874756576 l -7.342643278619941 -3.134137795084537" fill="#ff3a05" stroke="none" /><path d="M 119.31412917781788 108.2440532568976 l 7.8175808813531695 3.33686041615579 a29.499953427719824,29.499953427719824 0 0,0 -0.20279970271620087,0.4640454074772353 l -7.759147296620003 -3.47056789340887" fill="#ff4206" stroke="none" /><path d="M 119.0197475246899 108.90220220490707 l 7.2546447572284976 3.395540054870945 a29.00996646795827,29.00996646795827 0 0,0 -0.2149786908715113,0.44922278147098077 l -7.195286808397075 -3.5195753384070296" fill="#ff3b05" stroke="none" /><path d="M 118.70294669586154 109.54985784667822 l 7.217428107391429 3.6852702178453693 a29.103856184798808,29.103856184798808 0 0,0 -0.2310179994152133,0.44300747474367563 l -7.153102039001267 -3.808623935693548" fill="#ff3c05" stroke="none" /><line stroke="#e1ed5e" stroke-width="0.3" x1="174.33088141563837" x2="178.70328620479359" y1="141.23008692659167" y2="143.65538615756765" /><path d="M 175.20536237346943 141.71514677278685 a86.0,86.0 0 0,1 -30.301960400862466,31.631185727798858" fill="none" id="id17" stroke="none" /><text fill="#e1ed5e" style="font-size:6.75px; font-family:Arial;" text-anchor="middle"><textPath startOffset="22.145653131862474" xlink:href="#id17">May</textPath></text><path d="M 117.423217284605 111.72311816256416 l 7.271304493635684 4.892458171327189 a29.76401825633383,29.76401825633383 0 0,0 -0.2888672568693813,0.42146596067498837 l -7.186247499950983 -5.016558867072222" fill="#ff4606" stroke="none" /><path d="M 117.21940702142032 112.02048342749411 l 6.7074851121069115 4.682345537796236 a29.180141579731746,29.180141579731746 0 0,0 -0.29025195232209827,0.40827572018886177 l -6.626118061254853 -4.796798484694602" fill="#ff3d05" stroke="none" /><path d="M 116.79662413953412 112.60449989151573 l 6.488822524098147 4.869333392330615 a29.112658345752607,29.112658345752607 0 0,0 -0.30339274823465073,0.3971508464772171 l -6.404277798509192 -4.98000515204871" fill="#ff3c05" stroke="none" /><path d="M 116.57777611688842 112.89097897827486 l 5.320298771492084 4.1370965042516765 a27.73952123695976,27.73952123695976 0 0,0 -0.29553629041139096,0.3734004485258871 l -5.248496050439131 -4.2278168966922465" fill="#ff2803" stroke="none" /><path d="M 113.86319453409587 115.77377054828091 l 4.28640781072385 4.877145243574748 a27.493060730253355,27.493060730253355 0 0,0 -0.3571748157780536,0.30851909893276463 l -4.202053515182941 -4.950008474972231" fill="#ff2403" stroke="none" /><line stroke="#e1ed5e" stroke-width="0.3" x1="143.1302829299769" x2="145.66735839644613" y1="173.24464959558577" y2="177.55315839532614" /><path d="M 143.63769802327073 174.10635135553383 a86.0,86.0 0 0,1 -40.68552437913181,11.842963189579606" fill="none" id="id18" stroke="none" /><text fill="#e1ed5e" style="font-size:6.75px; font-family:Arial;" text-anchor="middle"><textPath startOffset="21.407464694133747" xlink:href="#id18">June</textPath></text><path d="M 106.0420521117495 120.11202640906438 l 1.9855029666777433 6.609093626227569 a27.900894187779436,27.900894187779436 0 0,0 -0.45988643660476536,0.13386623923890456 l -1.871756517691371 -6.642203559768992" fill="#ff2a04" stroke="none" /><path d="M 105.3480935250658 120.30758222061773 l 2.3754083433565847 9.019812389997732 a30.32735655737705,30.32735655737705 0 0,0 -0.5045818024577894,0.12826272103297842 l -2.2202212476733982 -9.059260342865981" fill="#ff4e07" stroke="none" /><path d="M 104.9986988182912 120.39639698878246 l 2.2244116621075087 9.076358663739585 a30.34496087928465,30.34496087928465 0 0,0 -0.507003384217249,0.11965141817662873 l -2.0682761241503806 -9.11320622556244" fill="#ff4e07" stroke="none" /><path d="M 100.72087961077811 120.9876233191556 l 0.629493885156929 18.327027628267867 a39.337835320417284,39.337835320417284 0 0,0 -0.6750872429883821,0.017387852680071064 l -0.31479332809780297 -18.33513319829798" fill="#ffcc13" stroke="none" /><line stroke="#e1ed5e" stroke-width="0.3" x1="101.45913802915013" x2="101.54496967792366" y1="184.9874750549273" y2="189.98673829345242" /><path d="M 101.47630435890484 185.9873277026323 a86.0,86.0 0 0,1 -42.54439059252881,-10.42667462771756" fill="none" id="id19" stroke="none" /><text fill="#e1ed5e" style="font-size:6.75px; font-family:Arial;" text-anchor="middle"><textPath startOffset="22.145653131862474" xlink:href="#id19">July</textPath></text><path d="M 99.63950707515114 120.99690560180557 l -0.1552308859515864 9.041420882744703 a30.042753353204173,30.042753353204173 0 0,0 -0.5155718246262523,-0.013279301343202448 l 0.3104160246485826 -9.037423864051453" fill="#ff4a06" stroke="none" /><path d="M 98.91894614982273 120.97215588758144 l -0.31114534249699655 6.036136521295329 a27.044150521609538,27.044150521609538 0 0,0 -0.46342810985625904,-0.02787868429543703 l 0.4147178044857019 -6.029905859175201" fill="#ff1d03" stroke="none" /><path d="M 98.55909050195518 120.95050786540614 l -1.648805251814514 23.973266498371306 a45.029899403874815,45.029899403874815 0 0,0 -0.7707210479954629,-0.0596586834954238 l 2.060095294585213 -23.94143004788083" fill="#e8ff1a" stroke="none" /><path d="M 97.12497278360702 120.80226474461374 l -1.3456605590885533 9.736529465507084 a30.82907973174367,30.82907973174367 0 0,0 -0.5236170836919969,-0.07695367955815148 l 1.512602748388235 -9.71199471265005" fill="#ff5507" stroke="none" /><path d="M 96.76829788921471 120.74984581791261 l -2.126674311913011 13.65477465569604 a34.81939269746647,34.81939269746647 0 0,0 -0.589811491072319,-0.09705325640635315 l 2.3607633060383932 -13.616255400794017" fill="#ff8e0d" stroke="none" /><path d="M 94.30408787586889 120.21278271476187 l -2.474984170926941 8.782845693402022 a30.12490685543964,30.12490685543964 0 0,0 -0.49654451837843455,-0.14453687258261474 l 2.625388701686983 -8.739065126516891" fill="#ff4b07" stroke="none" /><path d="M 93.61358852112213 120.00534299687104 l -7.3078488280565095 22.89173236927726 a45.029899403874815,45.029899403874815 0 0,0 -0.7343674605636453,-0.24140117067847072 l 7.699739026267898 -22.76291027719677" fill="#e8ff1a" stroke="none" /><path d="M 93.27111125876986 119.89276391827306 l -3.751154910233079 11.089622955557402 a32.7068740685544,32.7068740685544 0 0,0 -0.530309611180625,-0.1844692109743479 l 3.940970293458726 -11.023595312014463" fill="#ff710a" stroke="none" /><path d="M 91.26138138417905 119.09545874513695 l -3.2659935912799534 7.136785414946167 a28.8485935171386,28.8485935171386 0 0,0 -0.4485424462990249,-0.20994051310377132 l 3.388024751450468 -7.079668670271869" fill="#ff3805" stroke="none" /><path d="M 90.93487009805054 118.94263497670748 l -6.142773848424214 12.836034785352734 a35.23016020864382,35.23016020864382 0 0,0 -0.5432822047821226,-0.2657465505773985 l 6.362216302468406 -12.728694484678115" fill="#ff940d" stroke="none" /><path d="M 90.6110303473126 118.78422872680471 l -5.312778561855062 10.629116012978633 a32.882917287630406,32.882917287630406 0 0,0 -0.5027528386524747,-0.25670918167175394 l 5.494458622221118 -10.536348879634044" fill="#ff730a" stroke="none" /><line stroke="#e1ed5e" stroke-width="0.3" x1="58.13341422392154" x2="55.67067388415222" y1="173.97424548756322" y2="178.32567169271397" /><path d="M 57.64086615596768 174.84453072859336 a86.0,86.0 0 0,1 -31.369924170532247,-30.572349798747897" fill="none" id="id20" stroke="none" /><text fill="#e1ed5e" style="font-size:6.75px; font-family:Arial;" text-anchor="middle"><textPath startOffset="22.145653131862474" xlink:href="#id20">August</textPath></text><path d="M 89.03521579738668 117.91015095944536 l -11.62761439518933 18.992834265395427 a43.26946721311475,43.26946721311475 0 0,0 -0.630159771520377,-0.3932663038439012 l 11.951938295499419 -18.79043216470998" fill="#feff18" stroke="none" /><path d="M 88.72937992617639 117.7192867562869 l -12.046420021155543 18.938973130438914 a43.44551043219076,43.44551043219076 0 0,0 -0.625851958079318,-0.40566967789817393 l 12.36975761149187 -18.729389610836844" fill="#fcff18" stroke="none" /><path d="M 87.54013794807813 116.9041958592261 l -6.789324981719725 9.211023265319742 a32.44280923994039,32.44280923994039 0 0,0 -0.44546605122261823,-0.3342860296012527 l 6.946444021853109 -9.093118208454475" fill="#ff6d0a" stroke="none" /><path d="M 86.96720088162412 116.46651593811092 l -26.585162136031276 33.589483890148024 a63.83718330849479,63.83718330849479 0 0,0 -0.853440001740469,-0.6874708535542337 l 27.157852908127005 -33.12816474280038" fill="#33ff4f" stroke="none" /><path d="M 86.40962598614128 116.0094264158162 l -5.734388439156112 6.755095162411269 a29.860842026825633,29.860842026825633 0 0,0 -0.38793573602274034,-0.3350896491983559 l 5.849503654941715 -6.655661380748191" fill="#ff4706" stroke="none" /><path d="M 85.86807049272751 115.53346607816431 l -7.996597592835358 8.789661552239957 a32.882917287630406,32.882917287630406 0 0,0 -0.41427814031677507,-0.38344966186369284 l 8.1463055044661 -8.651094144243887" fill="#ff730a" stroke="none" /><path d="M 85.08716467003676 114.78537596483092 l -12.77231006510917 12.663145677777603 a38.98574888226528,38.98574888226528 0 0,0 -0.46711090408562006,-0.47929693781649846 l 12.9878077703456 -12.442026047893368" fill="#ffc712" stroke="none" /><path d="M 84.83555147118756 114.52719865689866 l -23.941635857243927 22.93554556952611 a54.154806259314455,54.154806259314455 0 0,0 -0.6373354496253819,-0.6768281613242217 l 24.33182714060556 -22.521175948257397" fill="#7cff26" stroke="none" /><path d="M 83.8745106332314 113.45245675266167 l -9.124659827041661 7.61211575749066 a32.882917287630406,32.882917287630406 0 0,0 -0.357880730419094,-0.4365563005184983 l 9.253987376699385 -7.454357175273667" fill="#ff730a" stroke="none" /><path d="M 83.4222238831116 112.89097897827486 l -47.45882534953105 36.904269643934214 a81.11875931445604,81.11875931445604 0 0,0 -0.8453657178781696,-1.1066108613066197 l 48.08534304476351 -36.08413786938672" fill="#49eeff" stroke="none" /><path d="M 82.98947788004972 112.3143062007846 l -9.530392189968419 6.899268982648976 a32.76555514157973,32.76555514157973 0 0,0 -0.32591570273142967,-0.4584412514334108 l 9.64742299122981 -6.734650504506061" fill="#ff710a" stroke="none" /><path d="M 81.99639281039703 110.81064883170644 l -5.086153186108962 3.054088851207681 a26.9326564828614,26.9326564828614 0 0,0 -0.23460432984567775,-0.3984094414834192 l 5.13783122608441 -2.966328241430703" fill="#ff1c02" stroke="none" /><line stroke="#e1ed5e" stroke-width="0.3" x1="26.387840678322732" x2="22.057713659400548" y1="142.50000000000003" y2="145.00000000000006" /><path d="M 25.521815274538298 143.00000000000003 a86.0,86.0 0 0,1 -11.493303480769221,-40.785679425670985" fill="none" id="id21" stroke="none" /><text fill="#e1ed5e" style="font-size:6.75px; font-family:Arial;" text-anchor="middle"><textPath startOffset="21.40746469413373" xlink:href="#id21">September</textPath></text><path d="M 81.81346652052679 110.50000000000001 l -54.1708327937159 31.275544895678124 a83.55108979135619,83.55108979135619 0 0,0 -0.706470755383228,-1.2482661320418287 l 54.699736914120514 -30.341021993537172" fill="#4cd6ff" stroke="none" /><path d="M 80.83023694016515 108.57439118712176 l -23.167630001989295 10.362586219532872 a46.379564083457524,46.379564083457524 0 0,0 -0.3188398866892392,-0.7295680573346531 l 23.342103770695502 -9.96335609242237" fill="#d7ff1c" stroke="none" /><path d="M 80.68587082218212 108.24405325689762 l -21.399177214059577 9.134036278949063 a44.26704545454545,44.26704545454545 0 0,0 -0.2923188163463856,-0.7014587443027536 l 21.55282187494245 -8.76534502520503" fill="#f2ff19" stroke="none" /><path d="M 80.41425534168474 107.57618678355246 l -9.905979274837174 3.831845588179012 a31.621274217585693,31.621274217585693 0 0,0 -0.19148837234126567,-0.5079456578224155 l 9.970298330992875 -3.661231650162452" fill="#ff6108" stroke="none" /><path d="M 80.16572619554312 106.89939002012753 l -10.30879730149678 3.5859348278978778 a31.91467958271237,31.91467958271237 0 0,0 -0.17555289322142836,-0.5189909351042827 l 10.368835616290577 -3.4084422183194336" fill="#ff6509" stroke="none" /><path d="M 79.2786578344484 103.40968896794605 l -21.997125247838273 3.619618588643917 a43.29293964232489,43.29293964232489 0 0,0 -0.11437274725258242,-0.7343550828345023 l 22.056019487229122 -3.2414753238779648" fill="#feff18" stroke="none" /><path d="M 79.17382384314188 102.69636545807758 l -10.940725924429941 1.4164960118812933 a32.03204172876304,32.03204172876304 0 0,0 -0.0659218103028862,-0.5459271559894201 l 10.96342982099249 -1.228475178968474" fill="#ff6709" stroke="none" /><path d="M 79.03789590574601 101.26102812881392 l -47.79734614636157 2.875369652884195 a68.88375558867362,68.88375558867362 0 0,0 -0.06087490552322437,-1.180956904288846 l 47.83966264134136 -2.054440955218619" fill="#39ff8c" stroke="none" /><line stroke="#e1ed5e" stroke-width="0.3" x1="15.003131293944662" x2="10.003315487706104" y1="100.72959589197737" y2="100.7725132973878" /><path d="M 14.003168132696942 100.73817937305945 a86.0,86.0 0 0,1 10.791469493833604,-42.45332614584628" fill="none" id="id22" stroke="none" /><text fill="#e1ed5e" style="font-size:6.75px; font-family:Arial;" text-anchor="middle"><textPath startOffset="22.145653131862435" xlink:href="#id22">October</textPath></text><path d="M 79.00696218219943 99.45929381324524 l -13.366049739528298 -0.3442620286477432 a34.37048248882265,34.37048248882265 0 0,0 0.02025454661278335,-0.589689024982418 l 13.358170505918665 0.5736573181942998" fill="#ff880c" stroke="none" /><path d="M 79.01933749520258 99.09900007780938 l -29.34283229410706 -1.260107473145697 a50.36987704918033,50.36987704918033 0 0,0 0.04451356463336971,-0.8635512619929481 l 29.316877140017116 1.763630528515357" fill="#a7ff21" stroke="none" /><path d="M 79.06263194458094 98.37931529534042 l -12.315525267322222 -0.9532995445161406 a33.352365871833086,33.352365871833086 0 0,0 0.0490857525503709,-0.5704508495899095 l 12.297345892074107 1.1645714414817308" fill="#ff7a0b" stroke="none" /><path d="M 79.0935383218832 98.0201363427161 l -42.12060041893316 -3.9888646522960944 a63.309053651266765,63.309053651266765 0 0,0 0.11174834062392619,-1.0810638256139387 l 42.04591968582757 4.711333000192946" fill="#32ff48" stroke="none" /><path d="M 79.2786578344484 96.59031103205396 l -12.987510379284354 -2.137089890583914 a34.162164679582716,34.162164679582716 0 0,0 0.10018491174535467,-0.5778399478429442 l 12.948910650046765 2.359722871347451" fill="#ff850c" stroke="none" /><path d="M 79.407916724674 95.88100663000787 l -34.61104160797855 -6.923177660349108 a56.296665424739196,56.296665424739196 0 0,0 0.19768785625595184,-0.9460079559942848 l 34.48709604089823 7.516302067628802" fill="#64ff29" stroke="none" /><path d="M 79.73907114497095 94.47779374421319 l -13.825592845747286 -3.7682268097889517 a35.329918032786885,35.329918032786885 0 0,0 0.1645053647679675,-0.5837715050730045 l 13.758868988904736 4.005006238764969" fill="#ff960d" stroke="none" /><path d="M 79.94057633289273 93.78553927170692 l -36.24373139852336 -11.22840063407499 a58.94318181818182,58.94318181818182 0 0,0 0.3077263091251986,-0.9639482804343893 l 36.045640373620905 11.848917948200771" fill="#48ff2c" stroke="none" /><path d="M 80.05021161711548 93.44210830539832 l -59.0354672992028 -19.406130694625137 a83.1432563338301,83.1432563338301 0 0,0 0.45734562878586565,-1.3520610865127873 l 58.69363624884457 20.416693455612087" fill="#4cdaff" stroke="none" /><path d="M 80.5471966667186 92.08871423366112 l -9.683821480506932 -3.9383258921570508 a31.454033159463485,31.454033159463485 0 0,0 0.20770768972905707,-0.49842284202028286 l 9.614787946241396 4.103981243618597" fill="#ff5f08" stroke="none" /><path d="M 80.83023694016515 91.42560881287825 l -25.685268406829763 -11.488693854950284 a49.13757451564828,49.13757451564828 0 0,0 0.35101902555666636,-0.7670399196893852 l 25.484264916418052 11.92792275685434" fill="#b6ff1f" stroke="none" /><path d="M 80.9802524753101 91.09779779509293 l -36.1403548345449 -16.915510896060383 a60.90312965722802,60.90312965722802 0 0,0 0.45132334427723536,-0.9430922071256935 l 35.84465223230776 17.533415605251164" fill="#34ff2f" stroke="none" /><path d="M 81.29705330413844 90.45014215332179 l -7.047575527021975 -3.59854228006117 a28.91314269746647,28.91314269746647 0 0,0 0.22950417086875238,-0.4401045089000589 l 6.984763287178282 3.718993032065715" fill="#ff3905" stroke="none" /><path d="M 81.46374523516351 90.13048839642627 l -20.749693532396144 -11.048043074864854 a44.50763785394933,44.50763785394933 0 0,0 0.3648665159139635,-0.6713132935095478 l 20.55698166686683 11.402611201849021" fill="#efff19" stroke="none" /><line stroke="#e1ed5e" stroke-width="0.3" x1="26.387840678322718" x2="22.05771365940052" y1="57.49999999999999" y2="54.99999999999999" /><path d="M 25.521815274538284 56.99999999999999 a86.0,86.0 0 0,1 29.574782752854787,-30.34633250058573" fill="none" id="id23" stroke="none" /><text fill="#e1ed5e" style="font-size:6.75px; font-family:Arial;" text-anchor="middle"><textPath startOffset="21.40746469413373" xlink:href="#id23">November</textPath></text><path d="M 81.99639281039701 89.18935116829357 l -18.10841581938598 -10.873583402494585 a42.122252235469446,42.122252235469446 0 0,0 0.377559870476466,-0.616715673697469 l 17.91908798445412 11.182836192316596" fill="#fff116" stroke="none" /><path d="M 82.576782715395 88.27688183743585 l -16.02267364483096 -10.780769897447456 a40.311941132637855,40.311941132637855 0 0,0 0.3912374919870722,-0.570827193083239 l 15.835246416028575 11.05423182560073" fill="#ffd914" stroke="none" /><path d="M 82.98947788004972 87.6856937992154 l -12.382379877739522 -8.963888129576345 a36.28641952309985,36.28641952309985 0 0,0 0.3695996120250166,-0.5014328573727008 l 12.226678246130687 9.175127296217909" fill="#ffa30f" stroke="none" /><path d="M 83.42222388311158 87.10902102172516 l -28.605002101840334 -22.243422650199477 a57.23556259314456,57.23556259314456 0 0,0 0.6097865101525023,-0.7704453354240371 l 28.21894916104627 22.731187929538198" fill="#5aff2a" stroke="none" /><path d="M 84.10781606972428 86.27271002978789 l -7.052008592011319 -6.09135706204271 a30.31855439642325,30.31855439642325 0 0,0 0.34359430967230026,-0.39094725166960204 l 6.946403218380427 6.211516591523612" fill="#ff4e07" stroke="none" /><path d="M 84.34580500576568 86.00192230759919 l -5.828767184188867 -5.212119558063737 a28.819252980625933,28.819252980625933 0 0,0 0.3329341444342744,-0.36595294621099567 l 5.738435338912726 5.311410079832391" fill="#ff3805" stroke="none" /><path d="M 85.34317274990677 84.96080404539775 l -43.97048175027968 -45.11758786380673 a84.0,84.0 0 0,0 1.0413100565387983,-0.997551478777726 l 43.189499207875585 45.86575147289003" fill="#4dd2ff" stroke="none" /><path d="M 87.25179093698888 83.31218511350988 l -37.76193838648921 -49.431589522421326 a83.20487146050671,83.20487146050671 0 0,0 1.1424702854143882,-0.8573310010951529 l 36.90781511216407 50.07253955078048" fill="#4cdaff" stroke="none" /><path d="M 88.12776184653039 82.6780497279521 l -6.999931772677217 -10.213109651831523 a33.38170640834575,33.38170640834575 0 0,0 0.4754567760187015,-0.3199085378671171 l 6.823578708561525 10.331767863755749" fill="#ff7a0b" stroke="none" /><line stroke="#e1ed5e" stroke-width="0.3" x1="56.869717070023135" x2="54.33264160355391" y1="26.7553504044142" y2="22.446841604673864" /><path d="M 56.362301976729285 25.89364864446614 a86.0,86.0 0 0,1 42.16139366436587,-11.88097634709845" fill="none" id="id24" stroke="none" /><text fill="#e1ed5e" style="font-size:6.75px; font-family:Arial;" text-anchor="middle"><textPath startOffset="22.145653131862474" xlink:href="#id24">December</textPath></text><path d="M 89.65649057296885 81.72400993836675 l -12.31278413538172 -21.75550977903065 a45.99813710879285,45.99813710879285 0 0,0 0.690532383692352,-0.38302667293909626 l 11.937507563533266 21.96366936740289" fill="#dcff1b" stroke="none" /><path d="M 90.28995756902619 81.37971332152246 l -9.347362940025562 -17.924800933500872 a41.21562965722802,41.21562965722802 0 0,0 0.6301531772795368,-0.32176070233808834 l 9.038282541032444 18.082619587511797" fill="#ffe515" stroke="none" /><path d="M 91.5904679813234 80.7573450057729 l -23.78105365937234 -54.415704696789746 a80.38524590163934,80.38524590163934 0 0,0 1.2691870483230216,-0.5417404804021179 l 22.843431535878885 54.815919826851264" fill="#48f5ff" stroke="none" /><path d="M 92.592206182469 80.34994680014964 l -7.234604897244086 -19.190649012707812 a41.509035022354695,41.509035022354695 0 0,0 0.6689098931396955,-0.2456329781283451 l 6.904105852450264 19.31201283984488" fill="#ffe915" stroke="none" /><path d="M 93.61358852112211 79.99465700312896 l -9.255716226304074 -28.99339925110048 a51.434938524590166,51.434938524590166 0 0,0 0.8434334704102475,-0.2612978451313753 l 8.75664212302221 29.1480136840385" fill="#9bff22" stroke="none" /><path d="M 93.95794788825049 79.88797359093562 l -11.396381824043171 -37.93484861992863 a60.60972429210134,60.60972429210134 0 0,0 0.9990213912391012,-0.29080056709594787 l 10.743500420422446 38.1248928813271" fill="#37ff2e" stroke="none" /><path d="M 95.70440661134978 79.44403061299748 l -2.5194999597923227 -12.056719376858686 a33.317157228017884,33.317157228017884 0 0,0 0.5608443891533973,-0.11218458519387119 l 2.3121590851079485 12.098193358715422" fill="#ff790b" stroke="none" /><path d="M 96.05791012581881 79.37332000966035 l -7.425566647314284 -38.85370244454534 a60.55691132637854,60.55691132637854 0 0,0 1.0227349090902942,-0.18637636952859407 l 6.757497004672951 38.975446988005295" fill="#37ff2e" stroke="none" /><path d="M 97.48249496171623 79.15144685158666 l -1.812856878816308 -15.013055550520074 a36.12211251862891,36.12211251862891 0 0,0 0.6162502892267175,-0.06905213028295167 l 1.554870687988791 15.041963441309997" fill="#ffa10e" stroke="none" /><path d="M 97.84075906011542 79.11130261209362 l -1.8493126343366884 -17.890422176024504 a38.98574888226528,38.98574888226528 0 0,0 0.6662858236003405,-0.06309796022971159 l 1.5419272473513324 17.9195318917594" fill="#ffc712" stroke="none" /><path d="M 98.5590905019552 79.04949213459386 l -2.2159217834825657 -32.21901640385506 a53.29512853949329,53.29512853949329 0 0,0 0.9132644289886624,-0.0549397202123205 l 1.6625130023614196 32.252308101892076" fill="#86ff25" stroke="none" /></svg>