<?xml version="1.0" encoding="utf-8" ?>
<svg baseProfile="full" height="200mm" version="1.1" viewBox="0,0,200,200" width="200mm" xmlns="http://www.w3.org/2000/svg" xmlns:ev="http://www.w3.org/2001/xml-events" xmlns:xlink="http://www.w3.org/1999/xlink"><defs /><rect fill="#1a1a1a" height="200" width="200" x="0" y="0" /><text alignment-baseline="middle" fill="#e1ed5e" style="dominant-baseline: central; font-size:9.0px; font-family:Arial;" text-anchor="middle" x="100.0" y="100.0">2025</text><line stroke="#e1ed5e" stroke-width="0.3" x1="100.0" x2="100.0" y1="15.0" y2="10.0" /><path d="M 100.0 14.0 a86.0,86.0 0 0,1 42.46469731375804,11.215312516191453" fill="none" id="id25" stroke="none" /><text fill="#e1ed5e" style="font-size:6.75px; font-family:Arial;" text-anchor="middle"><textPath startOffset="22.20632615414155" xlink:href="#id25">January</textPath></text><path d="M 100.0 79.0 l 0.0 -31.489540882495135 a52.489540882495135,52.489540882495135 0 0,0 0.903521161666634,0.007776891890275706 l -0.5420406823941056 31.48487536721342" fill="#7bff26" stroke="none" /><path d="M 101.44485096284872 79.0497635885617 l 0.5118017282241978 -7.421088733566717 a28.438716219918874,28.438716219918874 0 0,0 0.4880758251237656,0.037884077616613894 l -0.6394677427103046 7.411179393761638" fill="#ff5f08" stroke="none" /><path d="M 102.52436894288641 79.15227682838746 l 0.6450473295802139 -5.327180164203656 a26.36609118067178,26.36609118067178 0 0,0 0.4500883502423813,0.05843438548360626 l -0.7366504083304413 5.3152874555559135" fill="#ff4206" stroke="none" /><path d="M 102.88285421437855 79.19881850522331 l 0.5339955504678716 -3.853035060629941 a24.88986252023938,24.88986252023938 0 0,0 0.42387556714779984,0.062468240156751516 l -0.6002400980443272 3.8432723363122205" fill="#ff2d04" stroke="none" /><path d="M 103.95276090670814 79.375362276772 l 5.1185168385553625 -26.707295980460326 a48.19336082970413,48.19336082970413 0 0,0 0.8133974247008778,0.16315987134931395 l -5.5774806727233655 26.615232153033805" fill="#aaff21" stroke="none" /><path d="M 104.66035177308747 79.52364482259891 l 0.866520244848352 -3.8072611609248947 a24.904624806843703,24.904624806843703 0 0,0 0.41718367105395965,0.09873389627465085 l -0.9319276028648352 3.7917813525093753" fill="#ff2d04" stroke="none" /><path d="M 105.01212808612495 79.60689891045804 l 0.9460210259705419 -3.8491239816588574 a24.963673953261,24.963673953261 0 0,0 0.4164072900758329,0.10615148993540388 l -1.0121372047314 3.8322694955545855" fill="#ff2e04" stroke="none" /><path d="M 106.40334571778207 80.00007090966166 l 1.199605646946343 -3.7467956491355032 a24.93414938005235,24.93414938005235 0 0,0 0.40763437118788326,0.13439064319485713 l -1.2639228403766438 3.72559128168141" fill="#ff2e04" stroke="none" /><path d="M 106.74666289553966 80.11325718540242 l 2.4282495094665735 -7.157608766307251 a28.5582907414139,28.5582907414139 0 0,0 0.4641646934875123,0.16193794744512446 l -2.5510962070173595 7.114749965689919" fill="#ff6008" stroke="none" /><path d="M 107.08798089147638 80.2323363322302 l 2.3423248572633995 -6.5325077321695915 a27.93975093269272,27.93975093269272 0 0,0 0.45131701570864347,0.16622386570646763 l -2.4544241987446194 6.491220598656799" fill="#ff5808" stroke="none" /><path d="M 107.76421540070413 80.48803036053334 l 2.80540154873767 -7.050153430895013 a28.587815314622546,28.587815314622546 0 0,0 0.45565728185868065,0.18587404614314584 l -2.926342700184738 7.000818498568288" fill="#ff6108" stroke="none" /><path d="M 108.43124777332544 80.76684994638697 l 13.732743876434252 -31.32678942954612 a55.20461942982066,55.20461942982066 0 0,0 0.8670224110090987,0.38900768272312086 l -14.26994840591013 31.085761416306468" fill="#5fff29" stroke="none" /><line stroke="#e1ed5e" stroke-width="0.3" x1="143.23703022742887" x2="145.7803849466894" y1="26.81831364943548" y2="22.513508569990506" /><path d="M 143.74570117128098 25.957352633546492 a86.0,86.0 0 0,1 28.547481713284135,27.462654790039103" fill="none" id="id26" stroke="none" /><text fill="#e1ed5e" style="font-size:6.75px; font-family:Arial;" text-anchor="middle"><textPath startOffset="19.985693538727396" xlink:href="#id26">February</textPath></text><path d="M 111.60114157652 82.49532879139004 l 8.75739013283006 -13.213806064652756 a36.8523358737078,36.8523358737078 0 0,0 0.5257517537102976,0.3549899310104509 l -8.9835465809469 13.061104221343635" fill="#ffcd13" stroke="none" /><path d="M 111.90073688211348 82.69761687909136 l 2.208574828823421 -3.211028713434729 a24.89724366354154,24.89724366354154 0 0,0 0.35101421709394814,0.24590789091514653 l -2.26352018550102 3.1725359797556467" fill="#ff2d04" stroke="none" /><path d="M 113.06298171725822 83.55741782278167 l 27.152589139296495 -34.177394404317916 a64.65039959995491,64.65039959995491 0 0,0 0.8653813147140431,0.6997448399289192 l -27.73687385257503 33.70494346712487" fill="#35ff66" stroke="none" /><path d="M 113.6212207817346 84.01681056812373 l 5.41169520569611 -6.350102608732739 a29.343275624165162,29.343275624165162 0 0,0 0.3816109781417499,0.3309292797875027 l -5.520199982484623 6.256008335525564" fill="#ff6b09" stroke="none" /><path d="M 114.94478906791727 85.2469230424477 l 0.5258092350505353 -0.5190641416509015 a21.738852444546417,21.738852444546417 0 0,0 0.26059266792273145,0.268563651036584 l -0.5346661666763759 0.5099362950642032" fill="#ff0000" stroke="none" /><path d="M 115.4437574822437 85.77008943001954 l 3.2460746231412356 -2.9909399732475 a25.413923694692883,25.413923694692883 0 0,0 0.29365953340076395,0.3242661913589201 l -3.2970777971580354 2.934620994619031" fill="#ff3505" stroke="none" /><path d="M 115.68641384162765 86.03803664274999 l 2.9001052195737897 -2.5812887009525247 a24.882481376937218,24.882481376937218 0 0,0 0.28201109628970117,0.3223874336064035 l -2.944108179441339 2.5309857111431735" fill="#ff2d04" stroke="none" /><path d="M 116.38621287248628 86.86637796730983 l 13.603571807735749 -10.903322922000605 a38.433864077411144,38.433864077411144 0 0,0 0.40931318418663015,0.519786177512374 l -13.789239072516343 10.667544350535193" fill="#ffe115" stroke="none" /><path d="M 116.60985879189232 87.15038557335679 l 16.207638808438624 -12.538451534361812 a41.49146950866008,41.49146950866008 0 0,0 0.4321515550953114,0.5686607902695363 l -16.421066303758046 12.25760596821124" fill="#f8ff18" stroke="none" /><path d="M 117.04232023915458 87.72973835380427 l 3.275379073921803 -2.358232779546015 a25.03600915762219,25.03600915762219 0 0,0 0.24879519817477005,0.351903163846696 l -3.315486891900456 2.3015031153675256" fill="#ff2f04" stroke="none" /><line stroke="#e1ed5e" stroke-width="0.3" x1="172.23445277983987" x2="176.4835382374775" y1="55.19839476539836" y2="52.563006222186495" /><path d="M 173.08426987136738 54.67131705675599 a86.0,86.0 0 0,1 12.851231095245387,41.99856678651699" fill="none" id="id27" stroke="none" /><text fill="#e1ed5e" style="font-size:6.75px; font-family:Arial;" text-anchor="middle"><textPath startOffset="22.20632615414155" xlink:href="#id27">March</textPath></text><path d="M 118.03404312379186 89.2402003453031 l 54.10212937137558 -32.279398964090696 a84.0,84.0 0 0,0 0.7301613021186908,1.2480823505844187 l -54.6497503479646 31.34333720115238" fill="#4dd2ff" stroke="none" /><path d="M 118.73160827565052 90.50648371742162 l 3.4828524926278006 -1.765172341958581 a24.904624806843703,24.904624806843703 0 0,0 0.19050850506531444,0.3840535212251203 l -3.512721010646523 1.7049592322345108" fill="#ff2d04" stroke="none" /><path d="M 119.04729006885535 91.15688171328212 l 13.535039871496936 -6.283936358736993 a35.92263919297349,35.92263919297349 0 0,0 0.2555599554281858,0.5630924860302093 l -13.641202143888469 6.050021863864721" fill="#ffc212" stroke="none" /><path d="M 119.34039704204932 91.81776055985345 l 9.434395761991624 -3.9913598945195026 a31.243962963690578,31.243962963690578 0 0,0 0.20528520498667382,0.49711440695162873 l -9.501702653864495 3.828370917114571" fill="#ff850c" stroke="none" /><path d="M 119.61058180528143 92.48833698450437 l 3.694533514064026 -1.415158970430434 a24.95629280995884,24.95629280995884 0 0,0 0.15020766186612755,0.4024818552502031 l -3.718345764431779 1.3513539781508974" fill="#ff2e04" stroke="none" /><path d="M 120.08093135843002 93.85539295169968 l 29.874668720485733 -9.141413648051305 a52.24197936500739,52.24197936500739 0 0,0 0.25572225723499503,0.8621683250526544 l -30.02759687483243 8.62581593625212" fill="#7eff26" stroke="none" /><path d="M 120.6074358757038 95.95851677861258 l 9.53927217771342 -1.870820255514202 a30.720991827428904,30.720991827428904 0 0,0 0.0973040253415506,0.5198019942085207 l -9.57006192696483 1.7063401838431185" fill="#ff7e0b" stroke="none" /><path d="M 120.67395015179393 96.31383870115 l 30.747524129768934 -5.482277583646765 a52.23244479087218,52.23244479087218 0 0,0 0.15020095757945212,0.8864945540226299 l -30.83733694886861 4.952197241308298" fill="#7eff26" stroke="none" /><path d="M 120.91429891909075 98.10471618934814 l 3.969551247070139 -0.3597264361205769 a24.985817383167486,24.985817383167486 0 0,0 0.035129483591898145,0.42866867954016435 l -3.9751552144815316 0.29134383937264385" fill="#ff2f04" stroke="none" /><line stroke="#e1ed5e" stroke-width="0.3" x1="184.98032266829074" x2="189.97916517819016" y1="98.17113171792111" y2="98.06355123074" /><path d="M 185.9800911702706 98.14961562048488 a86.0,86.0 0 0,1 -9.607161424134198,41.387399972396054" fill="none" id="id28" stroke="none" /><text fill="#e1ed5e" style="font-size:6.75px; font-family:Arial;" text-anchor="middle"><textPath startOffset="21.466115282336823" xlink:href="#id28">April</textPath></text><path d="M 120.99513854157772 99.54816195383933 l 2.3437084232754124 -0.05043913535725982 a23.344251112766656,23.344251112766656 0 0,0 0.005187973989787753,0.4018143028569925 l -2.3442294043829155 0.010088574439804593" fill="#ff1702" stroke="none" /><path d="M 120.92983693683757 101.71520430193887 l 4.0387087152953915 0.3309729829074981 a25.052247672886942,25.052247672886942 0 0,0 -0.03892093783307792,0.42948930575857436 l -4.032413181185238 -0.400443677214643" fill="#ff3004" stroke="none" /><path d="M 120.70491114924044 103.5080841355445 l 8.645580405060848 1.464842000188008 a29.76879824296847,29.76879824296847 0 0,0 -0.08994934075253608,0.504483671803733 l -8.619084621969124 -1.6134444227249594" fill="#ff710a" stroke="none" /><path d="M 120.64145759157962 103.86396538481128 l 15.215943003695475 2.848339406395641 a36.48024414748474,36.48024414748474 0 0,0 -0.12085395382879285,0.6162317068823882 l -15.164659116891018 -3.109834840345974" fill="#ffc912" stroke="none" /><path d="M 120.49622156327973 104.57218783832717 l 11.782953104619628 2.628478362130883 a33.0725673477457,33.0725673477457 0 0,0 -0.12873013991563861,0.5545660735757955 l -11.735962398773436 -2.830913093055243" fill="#ff9d0e" stroke="none" /><path d="M 120.41448212921028 104.9243191809786 l 6.304937750038974 1.5208578743698962 a27.485772791726475,27.485772791726475 0 0,0 -0.11490189852239253,0.45897596812890434 l -6.2778245372215205 -1.6291616818961965" fill="#ff5207" stroke="none" /><path d="M 120.02730092923936 106.31721596034902 l 29.88999881278029 9.428208934496716 a52.34171585507933,52.34171585507933 0 0,0 -0.27842739314848225,0.8569114041917119 l -29.723279168615562 -9.941319238666223" fill="#7dff26" stroke="none" /><path d="M 119.79798401119884 107.00284435728193 l 8.563022429025088 3.0288696699854425 a30.082918286417886,30.082918286417886 0 0,0 -0.17688145554927745,0.48670179810928665 l -8.509616712470583 -3.17581926510086" fill="#ff750a" stroke="none" /><path d="M 119.67450827220406 107.3425965602758 l 9.025936245248827 3.3685115536668113 a30.634022793749416,30.634022793749416 0 0,0 -0.1886263993473668,0.49244400706029035 l -8.966615566307954 -3.5233791275602457" fill="#ff7c0b" stroke="none" /><path d="M 119.41010516605496 108.01547362559984 l 8.95145573425887 3.696536249280887 a30.684675523973098,30.684675523973098 0 0,0 -0.20580506857066594,0.4864623882666003 l -8.886499684495895 -3.850073163213651" fill="#ff7d0b" stroke="none" /><line stroke="#e1ed5e" stroke-width="0.3" x1="174.80103733775053" x2="179.2010983576182" y1="140.37084112569926" y2="142.7455964860345" /><path d="M 175.68104954172406 140.8457921977663 a86.0,86.0 0 0,1 -30.038265399797805,32.042727171017184" fill="none" id="id29" stroke="none" /><text fill="#e1ed5e" style="font-size:6.75px; font-family:Arial;" text-anchor="middle"><textPath startOffset="22.206326154141568" xlink:href="#id29">May</textPath></text><path d="M 117.94076556474637 110.91462005526583 l 12.587209784961018 7.6576783673454125 a35.73356332148908,35.73356332148908 0 0,0 -0.3242146363527422,0.522737225988226 l -12.453530508940313 -7.873211924698912" fill="#ffbf11" stroke="none" /><path d="M 117.75023020441432 111.22182372390056 l 1.5515791484557977 0.9809195428530603 a22.83564729822313,22.83564729822313 0 0,0 -0.21290993726805188,0.330440950749621 l -1.5344643478106956 -1.0074820935241342" fill="#ff1001" stroke="none" /><path d="M 117.55443506779139 111.5257021239791 l 6.525052858143003 4.284149008256109 a28.805782954098966,28.805782954098966 0 0,0 -0.2757082342850799,0.4121464016717306 l -6.450341518447202 -4.3958323241336466" fill="#ff6409" stroke="none" /><path d="M 117.14729908036423 112.12312394758627 l 3.1099239346054675 2.198713228835011 a24.808669943915596,24.808669943915596 0 0,0 -0.2495282103066188,0.34657285976187646 l -3.071615931923246 -2.2519196940480186" fill="#ff2c04" stroke="none" /><path d="M 116.71984013943494 112.70617746262583 l 20.14473726820683 15.30891471050026 a46.30164637367403,46.30164637367403 0 0,0 -0.48769564425887807,0.6304123622390343 l -19.878234806729882 -15.653405066852546" fill="#bfff1e" stroke="none" /><path d="M 116.498646956653 112.99209946851258 l 12.3893049382638 9.756138338286565 a36.76949942544381,36.76949942544381 0 0,0 -0.39585358108581836,0.4938882076751532 l -12.219533445123126 -9.967954379539968" fill="#ffcc13" stroke="none" /><path d="M 115.56566222782051 114.09645910891815 l 5.2015605909616625 4.710598566246668 a28.017547394479827,28.017547394479827 0 0,0 -0.32680947016323497,0.354687134207933 l -5.119704712802705 -4.799436955255937" fill="#ff5908" stroke="none" /><path d="M 115.32070863581623 114.36230785411682 l 7.852656443383203 7.361426419194805 a31.763587326863984,31.763587326863984 0 0,0 -0.3773717591787959,0.3956727807865564 l -7.724778132825442 -7.495506316563868" fill="#ff8b0c" stroke="none" /><path d="M 114.81725581225074 114.88116024355365 l 12.534687799644896 12.588747883748567 a38.76499286560934,38.76499286560934 0 0,0 -0.4769017977610557,0.4667487836322167 l -12.316136049508046 -12.802646770303356" fill="#ffe515" stroke="none" /><path d="M 114.55890576462653 115.13401014063108 l 6.004158183092158 6.241333812988021 a29.660494400017825,29.660494400017825 0 0,0 -0.37098804824460974,0.3507923555217138 l -5.89583430045674 -6.343760805255656" fill="#ff6f0a" stroke="none" /><path d="M 114.0293411484842 115.62618273729858 l 5.979620595370579 6.660230379604842 a29.95067210738899,29.95067210738899 0 0,0 -0.38658851001405486,0.3411194122120781 l -5.864089732449937 -6.762172933589209" fill="#ff730a" stroke="none" /><path d="M 113.75828350139079 115.86535959552629 l 5.362749697609347 6.1840528554867635 a29.18545014270218,29.18545014270218 0 0,0 -0.3823773769474625,0.32587029613466084 l -5.255506844084838 -6.275447541844372" fill="#ff6909" stroke="none" /><path d="M 113.20401910651253 116.32954008644616 l 6.1083774977904755 7.554290432987766 a30.71491531622605,30.71491531622605 0 0,0 -0.4139822210513741,0.32889251375351236 l -5.977437784021751 -7.658316860746404" fill="#ff7d0b" stroke="none" /><path d="M 112.92097659922987 116.55440617244103 l 9.05997529396279 11.607676074382812 a35.724853010302525,35.724853010302525 0 0,0 -0.48802066702135827,0.3741934372031692 l -8.858825898447938 -11.761908853413352" fill="#ffbf11" stroke="none" /><path d="M 112.63410532772338 116.77436683061366 l 4.770695551866979 6.334077099119287 a28.929695375371665,28.929695375371665 0 0,0 -0.4003525846331219,0.29617127103304863 l -4.660957996815292 -6.415258318892104" fill="#ff6509" stroke="none" /><path d="M 112.34349029814194 116.9893568818739 l 5.222288547980391 7.187863540923865 a29.88468794957424,29.88468794957424 0 0,0 -0.41877366568206903,0.29878389133371547 l -5.097787554449438 -7.2766916941018" fill="#ff720a" stroke="none" /><path d="M 112.04921762599082 117.19931262002967 l 7.586634353825736 10.829325192354613 a34.22237894406355,34.22237894406355 0 0,0 -0.48537618858648235,0.3338461684061658 l -7.39910128061637 -10.958312150125872" fill="#ffac0f" stroke="none" /><path d="M 111.45004920935366 117.60387380957326 l 2.041627739521418 3.138899792963258 a24.74445399718679,24.74445399718679 0 0,0 -0.3590516872073994,0.2291637747183742 l -1.987294250267088 -3.173577996505441" fill="#ff2b04" stroke="none" /><line stroke="#e1ed5e" stroke-width="0.3" x1="143.8653032363475" x2="146.44561519142675" y1="172.8068346515853" y2="177.08958963109032" /><path d="M 144.38136562736335 173.6633856474863 a86.0,86.0 0 0,1 -40.68145358897372,12.25698825130547" fill="none" id="id30" stroke="none" /><text fill="#e1ed5e" style="font-size:6.75px; font-family:Arial;" text-anchor="middle"><textPath startOffset="21.466115282336833" xlink:href="#id30">June</textPath></text><path d="M 110.8373102113329 117.98757091392108 l 1.9605594482480697 3.254101010178863 a24.799074457622787,24.799074457622787 0 0,0 -0.3675366066653148,0.21714710557434702 l -1.9042549705543728 -3.28736668804696" fill="#ff2c04" stroke="none" /><path d="M 110.21172684928248 118.3499491758327 l 3.6730660282074625 6.600311184569179 a28.553510560045623,28.553510560045623 0 0,0 -0.43153489965838693,0.2353072346424765 l -3.558908316680427 -6.662559070971426" fill="#ff6008" stroke="none" /><path d="M 109.89434966115114 118.52300852407294 l 3.744556952716918 7.010108064644888 a28.947535583445973,28.947535583445973 0 0,0 -0.44153138080074916,0.23098835037316803 l -3.6233346693896733 -7.073525833962773" fill="#ff6609" stroke="none" /><path d="M 108.92500713936063 119.00905698771935 l 1.6531928935365614 3.521077062934475 a24.88986252023938,24.88986252023938 0 0,0 -0.3893864961356015,0.1787482421742581 l -1.5923384016335405 -3.5490123754428073" fill="#ff2d04" stroke="none" /><path d="M 108.59647513512805 119.15986991738527 l 3.103095898439556 6.9161967923714665 a28.580434171320384,28.580434171320384 0 0,0 -0.45059004111567774,0.19752543240442952 l -2.983585182666124 -6.9685867780703505" fill="#ff6108" stroke="none" /><path d="M 108.2653958097858 119.30500536409082 l 2.903745872437659 6.782110734128085 a28.377585384234745,28.377585384234745 0 0,0 -0.45070164934238066,0.18839332597810118 l -2.786572763597817 -6.83108910312616" fill="#ff5e08" stroke="none" /><path d="M 107.2578585660854 119.70592522655815 l 3.8636191497905576 10.490172738477002 a32.179055282881215,32.179055282881215 0 0,0 -0.5214239557228035,0.18696407914644755 l -3.6824756334380195 -10.55512435866341" fill="#ff910d" stroke="none" /><path d="M 106.57524785965236 119.94407469862006 l 2.6655041322438926 8.085020467314108 a29.51307630859123,29.51307630859123 0 0,0 -0.48384391494048684,0.15491154227670795 l -2.5259388722124654 -8.129704856250521" fill="#ff6d0a" stroke="none" /><path d="M 106.2309692047433 120.05430185196036 l 2.686132922099482 8.645287541023968 a30.052972260101704,30.052972260101704 0 0,0 -0.49533741865115644,0.14924110092478926 l -2.53692052900808 -8.690244011054483" fill="#ff750a" stroke="none" /><path d="M 105.53697534728816 120.25689768951611 l 1.0334071291857672 3.7806963503612665 a24.919387093448027,24.919387093448027 0 0,0 -0.4147411404019003,0.10953690470370818 l -0.9681755459723693 -3.797924604368559" fill="#ff2e04" stroke="none" /><path d="M 104.83641907484287 120.43548508189849 l 0.9094567480708518 3.8427583549379745 a24.948911666656677,24.948911666656677 0 0,0 -0.41876136462256314,0.09530872321814363 l -0.8431752340554265 -3.8578438117338023" fill="#ff2e04" stroke="none" /><path d="M 104.13013068566511 120.58985236759428 l 2.7213065886721397 13.56647166206989 a34.83671431038799,34.83671431038799 0 0,0 -0.5889600848619567,0.11287560200061009 l -2.4873788892384785 -13.61130446241897" fill="#ffb410" stroke="none" /><path d="M 103.06178313531738 120.77559828337769 l 1.2235116902832688 8.30208615337047 a29.391758775980485,29.391758775980485 0 0,0 -0.5011594510672462,0.06945613334260205 l -1.080423648029192 -8.321916852205673" fill="#ff6c09" stroke="none" /><path d="M 102.70371172650421 120.8252237178851 l 0.9566828620324417 7.368808750425481 a28.430651687359173,28.430651687359173 0 0,0 -0.48585624930339094,0.058830425574662025 l -0.8296991896776704 -7.384184704725494" fill="#ff5f08" stroke="none" /><path d="M 101.62511606390274 120.93702456842531 l 0.6896748820448267 8.885359187774682 a29.912085016352542,29.912085016352542 0 0,0 -0.5136862742687288,0.03542681301553853 l -0.5366258469971676 -8.895914345306505" fill="#ff730a" stroke="none" /><path d="M 101.26447882468166 120.96189622390904 l 0.4568872281397828 7.57404748530026 a28.587815314622546,28.587815314622546 0 0,0 -0.4914544012652664,0.025402578953206703 l -0.32644475846103677 -7.580789871015669" fill="#ff6108" stroke="none" /><line stroke="#e1ed5e" stroke-width="0.3" x1="102.19456741930631" x2="102.32365962044197" y1="184.97166512339345" y2="189.96999836594603" /><path d="M 102.22038585953345 185.97133177190398 a86.0,86.0 0 0,1 -42.740103519485714,-10.115201625700543" fill="none" id="id31" stroke="none" /><text fill="#e1ed5e" style="font-size:6.75px; font-family:Arial;" text-anchor="middle"><textPath startOffset="22.20632615414155" xlink:href="#id31">July</textPath></text><path d="M 100.18074693466247 120.99922214144158 l 0.12674323361467685 14.725059224763516 a35.72560467417417,35.72560467417417 0 0,0 -0.6149803365542544,0.0 l 0.1267432336146667 -14.725059224763516" fill="#ffbf11" stroke="none" /><path d="M 99.81925306533755 120.99922214144158 l -0.07340690650932327 8.528431972492925 a29.52874788485173,29.52874788485173 0 0,0 -0.5082323710753349,-0.008749681172926477 l 0.22019896747732617 -8.525904814040839" fill="#ff6d0a" stroke="none" /><path d="M 98.73552117531835 120.96189622390904 l -0.4524427998504802 7.500369980579443 a28.514003881600928,28.514003881600928 0 0,0 -0.4896767447142586,-0.0337709752859279 l 0.5814823053436688 -7.49147066077723" fill="#ff6008" stroke="none" /><path d="M 98.01472825383883 120.90594882070398 l -0.6480434093957298 6.824235713130296 a27.854936420480076,27.854936420480076 0 0,0 -0.4769393885918243,-0.049436717715043994 l 0.7654153945931473 -6.812069626959491" fill="#ff5708" stroke="none" /><path d="M 97.65516085044442 120.86867818915974 l -0.6181412296862072 5.501354069518086 a26.535972830319995,26.535972830319995 0 0,0 -0.4534777595931073,-0.05490984138571764 l 0.7127464123307039 -5.48989869940702" fill="#ff4406" stroke="none" /><path d="M 96.58105272829116 120.7198165907248 l -1.1478486435413413 6.956297210223311 a28.050363634979426,28.050363634979426 0 0,0 -0.4757221837705205,-0.08271039948955249 l 1.2674197987839118 -6.935508232212752" fill="#ff5908" stroke="none" /><path d="M 96.22490169976321 120.6578951692458 l -2.9585953428179113 16.189870456172645 a37.45798261604975,37.45798261604975 0 0,0 -0.6332760438813391,-0.12136886101954295 l 3.2368390012709454 -16.136544396804634" fill="#ffd513" stroke="none" /><path d="M 95.86986931433489 120.58985236759428 l -1.3894903747320597 6.926996712531194 a28.06498173790216,28.06498173790216 0 0,0 -0.4728395320808625,-0.09908812128020415 l 1.508521368242309 -6.902052610524448" fill="#ff5a08" stroke="none" /><path d="M 95.16358092515715 120.4354850818985 l -1.6956424505901964 7.164655392149964 a28.36257361311295,28.36257361311295 0 0,0 -0.474123252529152,-0.11652796011024202 l 1.818718987862559 -7.134406173725692" fill="#ff5e08" stroke="none" /><path d="M 94.81253420990036 120.34920634021253 l -1.8941787598092472 7.430417083842759 a28.668051330942877,28.668051330942877 0 0,0 -0.4771313298159686,-0.12601472078357132 l 2.021800532436705 -7.396711013755606" fill="#ff6209" stroke="none" /><path d="M 94.11515582081647 120.15858648285463 l -4.557114730940515 15.610437357187687 a37.262012457061886,37.262012457061886 0 0,0 -0.6141578578146868,-0.18504072454583592 l 4.825147563195448 -15.529681263536125" fill="#ffd213" stroke="none" /><path d="M 93.76903079525671 120.05430185196036 l -1.988421887261632 6.399712697317419 a27.7015031306377,27.7015031306377 0 0,0 -0.4541445827035739,-0.1454027539684486 l 2.098287815056146 -6.364537096689263" fill="#ff5507" stroke="none" /><path d="M 93.42475214034765 119.94407469862007 l -2.295803582184611 6.963642909557224 a28.33232818822223,28.33232818822223 0 0,0 -0.46185778453258486,-0.15668723666677348 l 2.4153310996544217 -6.923092685992328" fill="#ff5d08" stroke="none" /><path d="M 93.08242187328487 119.8279376855182 l -2.4016258090259432 6.883809046029677 a28.290722427083583,28.290722427083583 0 0,0 -0.45841806940906893,-0.16437240995640387 l 2.519763439064739 -6.841449095033316" fill="#ff5d08" stroke="none" /><path d="M 91.07499286063937 119.00905698771935 l -3.2699037312610493 6.9644522857323174 a28.69388497782213,28.69388497782213 0 0,0 -0.445284458101447,-0.2137635997806534 l 3.389300857362738 -6.907134409452102" fill="#ff6209" stroke="none" /><path d="M 90.42595943632237 118.69057910512821 l -3.2469823352222953 6.338805417188922 a28.122032603283227,28.122032603283227 0 0,0 -0.42894013725133884,-0.2244012068470376 l 3.35561337500013 -6.281974791397168" fill="#ff5a08" stroke="none" /><line stroke="#e1ed5e" stroke-width="0.3" x1="58.666819895761336" x2="56.23545636021788" y1="174.27360380694188" y2="178.64263932499728" /><path d="M 58.180547188652646 175.14741091055294 a86.0,86.0 0 0,1 -31.652253787137756,-30.449443065178592" fill="none" id="id32" stroke="none" /><text fill="#e1ed5e" style="font-size:6.75px; font-family:Arial;" text-anchor="middle"><textPath startOffset="22.20632615414155" xlink:href="#id32">August</textPath></text><path d="M 88.8546689885994 117.79835938074946 l -4.980769065174849 7.953960068464686 a30.384750462923,30.384750462923 0 0,0 -0.4408945907769431,-0.2813997880394171 l 5.116945457998716 -7.867045851601465" fill="#ff790b" stroke="none" /><path d="M 88.54995079064634 117.60387380957326 l -3.601380528522807 5.536941126207477 a27.60512367380891,27.60512367380891 0 0,0 -0.39610105749195634,-0.26251418217516825 l 3.6961562847547254 -5.47412892294099" fill="#ff5307" stroke="none" /><line stroke="#e1ed5e" stroke-width="0.3" x1="26.63291911575756" x2="22.317208475507996" y1="142.92168965132927" y2="145.44649492493687" /><path d="M 25.769776987707644 143.4266507060508 a86.0,86.0 0 0,1 -11.730757126820373,-40.83630448921669" fill="none" id="id33" stroke="none" /><text fill="#e1ed5e" style="font-size:6.75px; font-family:Arial;" text-anchor="middle"><textPath startOffset="21.46611528233685" xlink:href="#id33">September</textPath></text><line stroke="#e1ed5e" stroke-width="0.3" x1="15.007084014347285" x2="10.007500721073583" y1="101.09737516637583" y2="101.16192664675087" /><path d="M 14.007167355692545 101.11028546245083 a86.0,86.0 0 0,1 10.666146001902534,-42.60595125391555" fill="none" id="id34" stroke="none" /><text fill="#e1ed5e" style="font-size:6.75px; font-family:Arial;" text-anchor="middle"><textPath startOffset="22.20632615414155" xlink:href="#id34">October</textPath></text><line stroke="#e1ed5e" stroke-width="0.3" x1="26.266209847984243" x2="21.928928074336255" y1="57.711370442889674" y2="55.22380399835377" /><path d="M 25.398753493254645 57.213857153982495 a86.0,86.0 0 0,1 29.58750427330803,-30.492523968695096" fill="none" id="id35" stroke="none" /><text fill="#e1ed5e" style="font-size:6.75px; font-family:Arial;" text-anchor="middle"><textPath startOffset="21.46611528233685" xlink:href="#id35">November</textPath></text><line stroke="#e1ed5e" stroke-width="0.3" x1="56.762969772571076" x2="54.21961505331055" y1="26.818313649435495" y2="22.513508569990535" /><path d="M 56.25429882871897 25.957352633546506 a86.0,86.0 0 0,1 42.265352541879196,-11.944610805530505" fill="none" id="id36" stroke="none" /><text fill="#e1ed5e" style="font-size:6.75px; font-family:Arial;" text-anchor="middle"><textPath startOffset="22.20632615414155" xlink:href="#id36">December</textPath></text></svg>