<?xml version="1.0" encoding="utf-8" ?>
<svg baseProfile="full" height="200mm" version="1.1" viewBox="0,0,200,200" width="200mm" xmlns="http://www.w3.org/2000/svg" xmlns:ev="http://www.w3.org/2001/xml-events" xmlns:xlink="http://www.w3.org/1999/xlink"><defs /><rect fill="#1a1a1a" height="200" width="200" x="0" y="0" /><text alignment-baseline="middle" fill="#e1ed5e" style="dominant-baseline: central; font-size:9.0px; font-family:Arial;" text-anchor="middle" x="100.0" y="100.0">2025</text><line stroke="#e1ed5e" stroke-width="0.3" x1="100.0" x2="100.0" y1="15.0" y2="10.0" /><path d="M 100.0 14.0 a86.0,86.0 0 0,1 42.46469731375804,11.215312516191453" fill="none" id="id25" stroke="none" /><text fill="#e1ed5e" style="font-size:6.75px; font-family:Arial;" text-anchor="middle"><textPath startOffset="22.20632615414155" xlink:href="#id25">January</textPath></text><path d="M 100.0 79.0 l 0.0 -31.39154608477179 a52.39154608477179,52.39154608477179 0 0,0 0.9018343423120031,0.007762372903542521 l -0.5403538630394746 31.386895088476805" fill="#80ff25" stroke="none" /><path d="M 101.44485096284872 79.0497635885617 l 1.0162290980963133 -14.735249794431343 a35.770250779323504,35.770250779323504 0 0,0 0.6139023480875024,0.04765063747640227 l -1.269721635546157 14.715573894766477" fill="#ffb811" stroke="none" /><path d="M 102.52436894288641 79.15227682838746 l 1.2808004151200978 -10.577602995693239 a31.654864374447495,31.654864374447495 0 0,0 0.5403715547295772,0.07015573657136273 l -1.462686698357521 10.55398893595774" fill="#ff820b" stroke="none" /><path d="M 102.88285421437855 79.19881850522331 l 1.0602969601573777 -7.650553190164688 a28.72367747638766,28.72367747638766 0 0,0 0.48916562198661784,0.07209029705652234 l -1.1918315625726512 7.631168408947197" fill="#ff5a08" stroke="none" /><path d="M 103.95276090670814 79.375362276772 l 5.147894985349676 -26.860584694074205 a48.349439352347275,48.349439352347275 0 0,0 0.8160316852335195,0.16368827923032545 l -5.609493080050321 26.76799245876667" fill="#adff20" stroke="none" /><path d="M 104.66035177308747 79.52364482259891 l 1.7205551258292988 -7.559664929636517 a28.75298934536826,28.75298934536826 0 0,0 0.4816485990818805,0.11399066196056937 l -1.8504274118737027 7.528928355535079" fill="#ff5a08" stroke="none" /><path d="M 105.01212808612495 79.60689891045804 l 1.8784111912593164 -7.642787385486461 a28.870236821290653,28.870236821290653 0 0,0 0.481570825716972,0.12276312609697543 l -2.0096909056613135 7.609321263220617" fill="#ff5c08" stroke="none" /><path d="M 106.40334571778207 80.00007090966166 l 2.3819266279099076 -7.439605130845161 a28.811613083329455,28.811613083329455 0 0,0 0.4710248424005766,0.15528948490409167 l -2.5096342925529016 7.397501921681833" fill="#ff5b08" stroke="none" /><path d="M 106.74666289553966 80.11325718540242 l 4.821511286255481 -14.212086243531326 a36.007676918066345,36.007676918066345 0 0,0 0.585241339238644,0.20417921174543516 l -5.065434629557399 14.126986178613684" fill="#ffbb11" stroke="none" /><path d="M 107.08798089147638 80.2323363322302 l 4.650900037802604 -12.970891020637291 a34.779509607779275,34.779509607779275 0 0,0 0.5618011599962485,0.2069161084616417 l -4.873483523571429 12.888911644369324" fill="#ffab0f" stroke="none" /><path d="M 107.76421540070413 80.48803036053334 l 5.570381123103232 -13.998723856166002 a36.06630065602754,36.06630065602754 0 0,0 0.5748558378022544,0.23449813001002826 l -5.810520830493874 13.900764839972394" fill="#ffbc11" stroke="none" /><path d="M 108.43124777332544 80.76684994638697 l 13.843125793182953 -31.578589877725317 a55.47955148187782,55.47955148187782 0 0,0 0.8713403875317213,0.39094503292282706 l -14.384648299181455 31.335624514285957" fill="#60ff29" stroke="none" /><line stroke="#e1ed5e" stroke-width="0.3" x1="143.23703022742887" x2="145.7803849466894" y1="26.81831364943548" y2="22.513508569990506" /><path d="M 143.74570117128098 25.957352633546492 a86.0,86.0 0 0,1 28.547481713284135,27.462654790039103" fill="none" id="id26" stroke="none" /><text fill="#e1ed5e" style="font-size:6.75px; font-family:Arial;" text-anchor="middle"><textPath startOffset="19.985693538727396" xlink:href="#id26">February</textPath></text><path d="M 111.60114157652 82.49532879139004 l 8.812992094664796 -13.297702468644639 a36.95298469269064,36.95298469269064 0 0,0 0.5271876543617635,0.3559594575400431 l -9.040584443433103 13.144031098805925" fill="#ffc812" stroke="none" /><path d="M 111.90073688211348 82.69761687909136 l 4.385327134710774 -6.375790923444676 a28.73833341087796,28.73833341087796 0 0,0 0.40516788682017746,0.2838459972914141 l -4.494426161114603 6.299360083389326" fill="#ff5a08" stroke="none" /><path d="M 113.06298171725822 83.55741782278167 l 27.351852520437888 -34.42821038111739 a64.97073465779556,64.97073465779556 0 0,0 0.8696691764321219,0.7032119925708107 l -27.940425095434502 33.95229229128245" fill="#35ff67" stroke="none" /><path d="M 113.6212207817346 84.01681056812373 l 5.474662249244612 -6.423988363991215 a29.440352672963293,29.440352672963293 0 0,0 0.38287347071488514,0.33202410090611717 l -5.584429518606262 6.328799269665427" fill="#ff6409" stroke="none" /><path d="M 114.94478906791727 85.2469230424477 l 1.044042282858502 -1.030649283569757 a22.467059042478947,22.467059042478947 0 0,0 0.2693219833563886,0.27755997791945736 l -1.0616285299179997 1.0125251101001853" fill="#ff0000" stroke="none" /><path d="M 115.4437574822437 85.77008943001954 l 6.445377779543383 -5.938784618839845 a29.7642488251989,29.7642488251989 0 0,0 0.34392782189148585,0.37977369103464975 l -6.546649242050905 5.826958140535646" fill="#ff6809" stroke="none" /><path d="M 115.68641384162765 86.03803664274999 l 5.758423915248788 -5.125384585153427 a28.70902154189736,28.70902154189736 0 0,0 0.3253800340804953,0.3719656265802254 l -5.845795812907132 5.025503402370254" fill="#ff5908" stroke="none" /><path d="M 116.38621287248628 86.86637796730983 l 13.718583465664087 -10.995505274099798 a38.58125901456288,38.58125901456288 0 0,0 0.41088291162639656,0.5217795719525601 l -13.905820457884447 10.757733308194199" fill="#ffdc14" stroke="none" /><path d="M 116.60985879189232 87.15038557335679 l 16.3702898054555 -12.664280575051558 a41.697110687200485,41.697110687200485 0 0,0 0.434293396687095,0.5714792027404741 l -16.585859142366708 12.38061659643005" fill="#fbff18" stroke="none" /><path d="M 117.04232023915458 87.72973835380427 l 6.503564444309582 -4.682486671106752 a29.013864979295583,29.013864979295583 0 0,0 0.28832511770919356,0.40781543165902395 l -6.583202181822658 4.5698447391159345" fill="#ff5e08" stroke="none" /><line stroke="#e1ed5e" stroke-width="0.3" x1="172.23445277983987" x2="176.4835382374775" y1="55.19839476539836" y2="52.563006222186495" /><path d="M 173.08426987136738 54.67131705675599 a86.0,86.0 0 0,1 12.851231095245387,41.99856678651699" fill="none" id="id27" stroke="none" /><text fill="#e1ed5e" style="font-size:6.75px; font-family:Arial;" text-anchor="middle"><textPath startOffset="22.20632615414155" xlink:href="#id27">March</textPath></text><path d="M 118.03404312379186 89.2402003453031 l 54.10212937137558 -32.279398964090696 a84.0,84.0 0 0,0 0.7301613021186908,1.2480823505844187 l -54.6497503479646 31.34333720115238" fill="#4dd2ff" stroke="none" /><path d="M 118.73160827565052 90.50648371742162 l 6.915521875368114 -3.504910980424303 a28.75298934536826,28.75298934536826 0 0,0 0.21994665885670245,0.44339904292806515 l -6.974828547178224 3.3853523489972877" fill="#ff5a08" stroke="none" /><path d="M 119.04729006885535 91.15688171328212 l 13.597547814241015 -6.312957029370298 a35.99155539012702,35.99155539012702 0 0,0 0.2560502373414446,0.5641727572367448 l -13.704200368545807 6.077962263291491" fill="#ffbb11" stroke="none" /><path d="M 119.34039704204932 91.81776055985345 l 9.494278564679776 -4.016694194993077 a31.308984320476434,31.308984320476434 0 0,0 0.2057124210402778,0.4981489445119041 l -9.56201267260625 3.8526706800278703" fill="#ff7d0b" stroke="none" /><path d="M 119.61058180528143 92.48833698450437 l 7.33583388612398 -2.8099274482196486 a28.855580886800354,28.855580886800354 0 0,0 0.17367681048627467,0.465367505425613 l -7.383115285111879 2.683236805764702" fill="#ff5b08" stroke="none" /><path d="M 120.08093135843002 93.85539295169968 l 29.905573507016573 -9.150870269646893 a52.27429860884939,52.27429860884939 0 0,0 0.2558804585529363,0.8627017012506645 l -30.05865986268121 8.634739181649698" fill="#82ff25" stroke="none" /><path d="M 120.6074358757038 95.95851677861258 l 9.881847013117815 -1.9380052492080935 a31.07009258828456,31.07009258828456 0 0,0 0.09840974840778066,0.5257088110421643 l -9.913742485435456 1.7676183607033664" fill="#ff7a0b" stroke="none" /><path d="M 120.67395015179393 96.31383870115 l 30.648772795170995 -5.464670239857503 a52.13213604429349,52.13213604429349 0 0,0 0.1499125071756842,0.8847921034113504 l -30.7382971638669 4.936292348130314" fill="#83ff25" stroke="none" /><path d="M 120.91429891909075 98.10471618934814 l 7.881906725195884 -0.7142697094998418 a28.91420462476155,28.91420462476155 0 0,0 0.040652705547373186,0.49606597720515977 l -7.893033914562752 0.5784898150869133" fill="#ff5c08" stroke="none" /><line stroke="#e1ed5e" stroke-width="0.3" x1="184.98032266829074" x2="189.97916517819016" y1="98.17113171792111" y2="98.06355123074" /><path d="M 185.9800911702706 98.14961562048488 a86.0,86.0 0 0,1 -9.607161424134198,41.387399972396054" fill="none" id="id28" stroke="none" /><text fill="#e1ed5e" style="font-size:6.75px; font-family:Arial;" text-anchor="middle"><textPath startOffset="21.466115282336823" xlink:href="#id28">April</textPath></text><path d="M 120.99513854157772 99.54816195383933 l 4.653647234545025 -0.10015151220906432 a25.654724794119016,25.654724794119016 0 0,0 0.005701448476719991,0.4415834677386326 l -4.654681690139459 0.020031786409968996" fill="#ff2e04" stroke="none" /><path d="M 120.92983693683757 101.71520430193887 l 8.019225197732164 0.6571771007521797 a29.046108035174242,29.046108035174242 0 0,0 -0.04512576196320217,0.4979590229948399 l -8.006724839491888 -0.7951175122955902" fill="#ff5e08" stroke="none" /><path d="M 120.70491114924044 103.5080841355445 l 17.16658989808145 2.908577643670171 a38.41125017447541,38.41125017447541 0 0,0 -0.11606335608428206,0.6509449379995808 l -17.113980099657983 -3.20364133240297" fill="#ffda14" stroke="none" /><path d="M 120.64145759157962 103.86396538481128 l 15.36080553894386 2.875456862576841 a36.627622947006,36.627622947006 0 0,0 -0.12134219920787193,0.6187212595515011 l -15.309033406760323 -3.1394418491962868" fill="#ffc312" stroke="none" /><path d="M 120.49622156327973 104.57218783832717 l 11.869746884945927 2.6478398559372 a33.16149444005025,33.16149444005025 0 0,0 -0.12907627563937268,0.5560572172144282 l -11.822410043376003 -2.8517657305001936" fill="#ff960d" stroke="none" /><path d="M 120.41448212921028 104.9243191809786 l 6.382790671767231 1.5396373189492485 a27.565858651654025,27.565858651654025 0 0,0 -0.11523669054080156,0.4603132958210239 l -6.355342666931369 -1.6492784541676684" fill="#ff4906" stroke="none" /><path d="M 120.02730092923936 106.31721596034902 l 29.765602795497234 9.388970671259901 a52.21127809054111,52.21127809054111 0 0,0 -0.2777335403361471,0.8547759448139653 l -29.59957700414484 -9.899945516051663" fill="#82ff25" stroke="none" /><path d="M 119.79798401119884 107.00284435728193 l 8.648088814457742 3.0589589284111725 a30.173149397478248,30.173149397478248 0 0,0 -0.17741199617396783,0.48816161805030295 l -8.594152557278548 -3.2073683434676066" fill="#ff6e0a" stroke="none" /><path d="M 119.67450827220406 107.3425965602758 l 9.148879771392707 3.4143945155016233 a30.765249150886333,30.765249150886333 0 0,0 -0.1894344145209815,0.49455347970694563 l -9.08875107727822 -3.571371562041713" fill="#ff760a" stroke="none" /><path d="M 119.41010516605496 108.01547362559984 l 9.02592919006822 3.7272903341114567 a30.765249150886333,30.765249150886333 0 0,0 -0.20634548363221386,0.48773976983607115 l -8.960432725243699 -3.8821046296136914" fill="#ff760a" stroke="none" /><line stroke="#e1ed5e" stroke-width="0.3" x1="174.80103733775053" x2="179.2010983576182" y1="140.37084112569926" y2="142.7455964860345" /><path d="M 175.68104954172406 140.8457921977663 a86.0,86.0 0 0,1 -30.038265399797805,32.042727171017184" fill="none" id="id29" stroke="none" /><text fill="#e1ed5e" style="font-size:6.75px; font-family:Arial;" text-anchor="middle"><textPath startOffset="22.206326154141568" xlink:href="#id29">May</textPath></text><path d="M 117.94076556474637 110.91462005526583 l 12.825147374472879 7.802432412372949 a36.01207369841344,36.01207369841344 0 0,0 -0.32674159230624195,0.5268114835855595 l -12.688941142498674 -8.022040227323782" fill="#ffbb11" stroke="none" /><path d="M 117.75023020441432 111.22182372390056 l 1.5509669345317125 0.980532496788965 a22.834922998185455,22.834922998185455 0 0,0 -0.2129031842002027,0.33043046983835306 l -1.5338588869544594 -1.007084566548771" fill="#ff0500" stroke="none" /><path d="M 117.55443506779139 111.5257021239791 l 6.554428949845336 4.303436446514319 a28.840924952310054,28.840924952310054 0 0,0 -0.27604458821413186,0.4126492051585629 l -6.479381256220484 -4.415622565878689" fill="#ff5b08" stroke="none" /><path d="M 117.14729908036423 112.12312394758627 l 6.175038146467185 4.365746026814207 a28.56246219699437,28.56246219699437 0 0,0 -0.28728424740538794,0.3990126930557429 l -6.098974106686194 -4.471392325321081" fill="#ff5708" stroke="none" /><path d="M 116.71984013943494 112.70617746262583 l 20.2512091578579 15.389827608793876 a46.4353743079142,46.4353743079142 0 0,0 -0.4891042017541845,0.6322331126771791 l -19.983298138885647 -15.736138715584307" fill="#c3ff1e" stroke="none" /><path d="M 116.498646956653 112.99209946851258 l 12.43098165989107 9.788957278792754 a36.822546875726985,36.822546875726985 0 0,0 -0.3964246800534463,0.4946007414477496 l -12.260639067782769 -10.001485853818753" fill="#ffc612" stroke="none" /><path d="M 115.56566222782051 114.09645910891815 l 5.213298262083748 4.721228348557547 a28.03338296189457,28.03338296189457 0 0,0 -0.3269941834546477,0.3548876040044434 l -5.131257670633378 -4.810267207363325" fill="#ff5007" stroke="none" /><path d="M 115.32070863581623 114.36230785411682 l 7.902714199552259 7.408352767164479 a31.832201181780114,31.832201181780114 0 0,0 -0.3781869357162344,0.3965274901270278 l -7.774020712457061 -7.543287373874014" fill="#ff840c" stroke="none" /><path d="M 114.81725581225074 114.88116024355365 l 14.793816241338511 14.857619581557616 a41.96677988182199,41.96677988182199 0 0,0 -0.5162914086239654,0.5052998082757032 l -14.535874880338751 -15.110069492755892" fill="#f8ff18" stroke="none" /><path d="M 114.55890576462653 115.13401014063108 l 6.074057041427725 6.313993808730232 a29.76131763830084,29.76131763830084 0 0,0 -0.3722491268997348,0.3519847841026954 l -5.964472080137183 -6.417613229578849" fill="#ff6809" stroke="none" /><path d="M 114.0293411484842 115.62618273729858 l 6.0313177412177925 6.717811775584553 a30.028055646024285,30.028055646024285 0 0,0 -0.3875873385810189,0.34200076229061777 l -5.914788049730186 -6.820635679647459" fill="#ff6c09" stroke="none" /><path d="M 113.75828350139079 115.86535959552629 l 5.456776053022183 6.292479312895538 a29.328967570837015,29.328967570837015 0 0,0 -0.38425769119473707,0.3274727407287346 l -5.347652885250398 -6.38547644384722" fill="#ff6209" stroke="none" /><path d="M 113.20401910651253 116.32954008644616 l 6.183336542457945 7.646993019591524 a30.834132042990742,30.834132042990742 0 0,0 -0.41558904968249355,0.3301690755979265 l -6.0507900000581 -7.752296009194576" fill="#ff770a" stroke="none" /><path d="M 112.92097659922987 116.55440617244103 l 9.143816781011793 11.715094118216541 a35.861117573163355,35.861117573163355 0 0,0 -0.48988211408846133,0.3756207154380489 l -8.940805938429838 -11.870754175481961" fill="#ffb911" stroke="none" /><path d="M 112.63410532772338 116.77436683061366 l 4.818688802122197 6.397797985109363 a29.009468198948497,29.009468198948497 0 0,0 -0.4014565456561493,0.2969879550059037 l -4.707847286047484 -6.479795888855036" fill="#ff5e08" stroke="none" /><path d="M 112.34349029814194 116.9893568818739 l 5.284160156013771 7.273022503611488 a29.98995021634951,29.98995021634951 0 0,0 -0.420248704183052,0.29983629213946555 l -5.158184123981834 -7.362903057595172" fill="#ff6b09" stroke="none" /><path d="M 112.04921762599082 117.19931262002967 l 7.652343581388116 10.923119958284332 a34.336900386172246,34.336900386172246 0 0,0 -0.4870004468291078,0.33496334803622096 l -7.4631862499361254 -11.053224095685646" fill="#ffa60f" stroke="none" /><path d="M 111.45004920935366 117.60387380957326 l 4.053838433842495 6.232572360952298 a28.434955566928767,28.434955566928767 0 0,0 -0.41260230567762557,0.26334231308589323 l -3.9459543261179393 -6.3014291028619995" fill="#ff5607" stroke="none" /><line stroke="#e1ed5e" stroke-width="0.3" x1="143.8653032363475" x2="146.44561519142675" y1="172.8068346515853" y2="177.08958963109032" /><path d="M 144.38136562736335 173.6633856474863 a86.0,86.0 0 0,1 -40.68145358897372,12.25698825130547" fill="none" id="id30" stroke="none" /><text fill="#e1ed5e" style="font-size:6.75px; font-family:Arial;" text-anchor="middle"><textPath startOffset="21.466115282336833" xlink:href="#id30">June</textPath></text><path d="M 110.8373102113329 117.98757091392108 l 3.892869933773588 6.461314904430636 a28.54340948215698,28.54340948215698 0 0,0 -0.42302981434478015,0.2499334708182454 l -3.781072248400426 -6.527366947542631" fill="#ff5708" stroke="none" /><path d="M 110.21172684928248 118.3499491758327 l 3.725881075330261 6.69521711426418 a28.662122551528405,28.662122551528405 0 0,0 -0.4331763743466799,0.23620229752138522 l -3.6100818891149324 -6.758360063545336" fill="#ff5908" stroke="none" /><path d="M 109.89434966115114 118.52300852407294 l 3.7854760742402553 7.086711910550024 a29.034383287582003,29.034383287582003 0 0,0 -0.4428560526926281,0.23168135609913906 l -3.6629291190211317 -7.15082268559388" fill="#ff5e08" stroke="none" /><path d="M 108.92500713936063 119.00905698771935 l 3.2825655532799405 6.991420252543685 a28.72367747638766,28.72367747638766 0 0,0 -0.44936415858323187,0.20628104528538974 l -3.161733398929289 -7.04688836816315" fill="#ff5a08" stroke="none" /><path d="M 108.59647513512805 119.15986991738527 l 6.161480456736964 13.732740709873918 a36.051644721537244,36.051644721537244 0 0,0 -0.5683787719945191,0.24916055052999656 l -5.924181010084691 -13.836765813698369" fill="#ffbc11" stroke="none" /><path d="M 108.2653958097858 119.30500536409082 l 2.91305882190143 6.803862449773783 a28.401246917601078,28.401246917601078 0 0,0 -0.4510774491847485,0.1885504103426892 l -2.7955099132192203 -6.852997903136446" fill="#ff5507" stroke="none" /><path d="M 107.2578585660854 119.70592522655815 l 3.8566976542716884 10.471380077816992 a32.159028520913786,32.159028520913786 0 0,0 -0.5210994454674968,0.18684772131441643 l -3.6758786481744568 -10.536215340171367" fill="#ff890c" stroke="none" /><path d="M 106.57524785965236 119.94407469862006 l 4.090524316354711 12.407398817998832 a34.06430000465268,34.06430000465268 0 0,0 -0.5584576850485952,0.17880051524012425 l -3.876345286215175 -12.475972179898664" fill="#ffa20f" stroke="none" /><path d="M 106.2309692047433 120.05430185196036 l 5.333562366550272 17.16600838977531 a38.97550365235193,38.97550365235193 0 0,0 -0.6423998665654573,0.19354981010971267 l -5.037287525544569 -17.25527356899075" fill="#ffe115" stroke="none" /><path d="M 105.53697534728816 120.25689768951611 l 2.051924284239063 7.506918070860087 a28.78230121434886,28.78230121434886 0 0,0 -0.47903282629967475,0.12651692328735045 l -1.9224010151278907 -7.541126343451022" fill="#ff5a08" stroke="none" /><path d="M 104.83641907484287 120.43548508189849 l 1.8058094763697017 7.630147851962753 a28.840924952310054,28.840924952310054 0 0,0 -0.48408785326485354,0.11017681934834185 l -1.674201473711986 -7.6601014048887786" fill="#ff5b08" stroke="none" /><path d="M 104.13013068566511 120.58985236759428 l 3.4989756939437537 17.443368856620314 a38.79083887777416,38.79083887777416 0 0,0 -0.655809717120992,0.12568749312651992 l -3.1981983622510572 -17.5010135480953" fill="#ffdf14" stroke="none" /><path d="M 103.06178313531738 120.77559828337769 l 1.231665053177967 8.357410447963685 a29.44768064020844,29.44768064020844 0 0,0 -0.5021129758628445,0.06958828319073423 l -1.0876234861282918 -8.377373296647024" fill="#ff6409" stroke="none" /><path d="M 102.70371172650421 120.8252237178851 l 0.9604447509356362 7.397784538503358 a28.459870655562277,28.459870655562277 0 0,0 -0.4863555772279065,0.05889088723249329 l -0.8329617506563494 -7.413220954461202" fill="#ff5607" stroke="none" /><path d="M 101.62511606390274 120.93702456842531 l 0.6930920020362162 8.929383320451805 a29.95624156702182,29.95624156702182 0 0,0 -0.5144445836271523,0.035479110468662124 l -0.5392846576301336 -8.939990775436753" fill="#ff6b09" stroke="none" /><path d="M 101.26447882468166 120.96189622390904 l 0.9071913402778226 15.038963372850567 a36.06630065602754,36.06630065602754 0 0,0 -0.6200173745244139,0.03204781617209517 l -0.648185897339929 -15.052350995784865" fill="#ffbc11" stroke="none" /><line stroke="#e1ed5e" stroke-width="0.3" x1="102.19456741930631" x2="102.32365962044197" y1="184.97166512339345" y2="189.96999836594603" /><path d="M 102.22038585953345 185.97133177190398 a86.0,86.0 0 0,1 -42.740103519485714,-10.115201625700543" fill="none" id="id31" stroke="none" /><text fill="#e1ed5e" style="font-size:6.75px; font-family:Arial;" text-anchor="middle"><textPath startOffset="22.20632615414155" xlink:href="#id31">July</textPath></text><path d="M 100.18074693466247 120.99922214144158 l 0.12653462766476267 14.700823335560445 a35.70136788721909,35.70136788721909 0 0,0 -0.6145631246544261,0.0 l 0.12653462766475254 -14.700823335560445" fill="#ffb711" stroke="none" /><path d="M 99.81925306533755 120.99922214144158 l -0.07272177534515985 8.448833269814173 a29.44914623365747,29.44914623365747 0 0,0 -0.5068623117661584,-0.008726094359442063 l 0.21814377700398613 -8.446329698175571" fill="#ff6409" stroke="none" /><path d="M 98.73552117531835 120.96189622390904 l -0.8983665217926194 14.892669954826731 a35.919741311124554,35.919741311124554 0 0,0 -0.6168569685704274,-0.04254206814068807 l 1.1545862511419769 -14.874999542169759" fill="#ffba11" stroke="none" /><path d="M 98.01472825383883 120.90594882070398 l -0.6546602847865509 6.893914868410155 a27.924929046666357,27.924929046666357 0 0,0 -0.47813782034680313,-0.04956094006653935 l 0.7732307017389474 -6.881624559887855" fill="#ff4e07" stroke="none" /><path d="M 97.65516085044442 120.86867818915974 l -0.6120386930166483 5.447042508778958 a26.48131949937189,26.48131949937189 0 0,0 -0.45254377951138486,-0.05479674940477723 l 0.7057098955794225 -5.435700230648832" fill="#ff3a05" stroke="none" /><path d="M 96.58105272829116 120.7198165907248 l -1.1594006043758396 7.026305458591063 a28.121318568836365,28.121318568836365 0 0,0 -0.4769255491358672,-0.08291961998314151 l 1.2801751249837567 -7.005307260086915" fill="#ff5107" stroke="none" /><path d="M 96.22490169976321 120.6578951692458 l -2.953703092445544 16.163099339953572 a37.4307681570744,37.4307681570744 0 0,0 -0.6328159479628553,-0.12128068254172801 l 3.2314866549800945 -16.109861459063374" fill="#ffce13" stroke="none" /><path d="M 95.86986931433489 120.58985236759428 l -1.3648282322121799 6.80404905973286 a27.939584981156656,27.939584981156656 0 0,0 -0.47072684430726147,-0.0986453870159676 l 1.481746537948828 -6.77954769199035" fill="#ff4f07" stroke="none" /><path d="M 95.16358092515715 120.4354850818985 l -1.715012700828865 7.246501165574347 a28.446680314521007,28.446680314521007 0 0,0 -0.47552922306536066,-0.11687351346094892 l 1.839495208637436 -7.215906393799369" fill="#ff5607" stroke="none" /><path d="M 94.81253420990036 120.34920634021253 l -1.910091856085635 7.492840412061693 a28.73247103708184,28.73247103708184 0 0,0 -0.47820348710010396,-0.12629788726699737 l 2.0387857859972285 -7.458851175491114" fill="#ff5a08" stroke="none" /><path d="M 94.11515582081647 120.15858648285463 l -4.551835111749719 15.592351974327311 a37.24317219559857,37.24317219559857 0 0,0 -0.6138473299108514,-0.18494716503570954 l 4.819557416100817 -15.511689440185876" fill="#ffcb12" stroke="none" /><path d="M 93.76903079525671 120.05430185196036 l -1.9651339856861492 6.32476085718668 a27.623016796166194,27.623016796166194 0 0,0 -0.4528578603387838,-0.14499078610059582 l 2.0737131911158735 -6.2899972244263775" fill="#ff4a06" stroke="none" /><path d="M 93.42475214034765 119.94407469862007 l -2.321053622629804 7.040231458541406 a28.412971665193318,28.412971665193318 0 0,0 -0.4631723894377459,-0.15713322202589597 l 2.4418957450047762 -6.999235249617387" fill="#ff5507" stroke="none" /><path d="M 93.08242187328487 119.8279376855182 l -2.425481261942269 6.952186218678877 a28.363141487926303,28.363141487926303 0 0,0 -0.4595915355920377,-0.16479317317968945 l 2.5447923581640337 -6.9094055044592295" fill="#ff5507" stroke="none" /><path d="M 91.07499286063937 119.00905698771935 l -3.2968917407041243 7.021933092355547 a28.75738612571535,28.75738612571535 0 0,0 -0.44626989713315385,-0.21423667040090402 l 3.4172743058375206 -6.964142145455081" fill="#ff5a08" stroke="none" /><path d="M 90.42595943632237 118.69057910512821 l -3.8239590200944784 7.465187564694233 a29.387591308798214,29.387591308798214 0 0,0 -0.44824346900196943,-0.23449979768716703 l 3.9518933916229435 -7.398258348062349" fill="#ff6309" stroke="none" /><line stroke="#e1ed5e" stroke-width="0.3" x1="58.666819895761336" x2="56.23545636021788" y1="174.27360380694188" y2="178.64263932499728" /><path d="M 58.180547188652646 175.14741091055294 a86.0,86.0 0 0,1 -31.652253787137756,-30.449443065178592" fill="none" id="id32" stroke="none" /><text fill="#e1ed5e" style="font-size:6.75px; font-family:Arial;" text-anchor="middle"><textPath startOffset="22.20632615414155" xlink:href="#id32">August</textPath></text><path d="M 88.8546689885994 117.79835938074946 l -5.0559241316315 8.073977758447272 a30.52635741869446,30.52635741869446 0 0,0 -0.4429493629855288,-0.28271124088111876 l 5.1941552966639515 -7.985752088742348" fill="#ff720a" stroke="none" /><path d="M 88.54995079064634 117.60387380957326 l -3.5296282992868724 5.42662568861153 a27.47352626436514,27.47352626436514 0 0,0 -0.3942127894421618,-0.2612627410758741 l 3.6225157874689957 -5.3650649264443375" fill="#ff4806" stroke="none" /><path d="M 87.95078237400918 117.19931262002967 l -4.767998693018748 6.80594397400793 a29.30991485599963,29.30991485599963 0 0,0 -0.410719379295077,-0.29303737185116596 l 4.884445400162712 -6.722862340312545" fill="#ff6209" stroke="none" /><line stroke="#e1ed5e" stroke-width="0.3" x1="26.63291911575756" x2="22.317208475507996" y1="142.92168965132927" y2="145.44649492493687" /><path d="M 25.769776987707644 143.4266507060508 a86.0,86.0 0 0,1 -11.730757126820373,-40.83630448921669" fill="none" id="id33" stroke="none" /><text fill="#e1ed5e" style="font-size:6.75px; font-family:Arial;" text-anchor="middle"><textPath startOffset="21.46611528233685" xlink:href="#id33">September</textPath></text><line stroke="#e1ed5e" stroke-width="0.3" x1="15.007084014347285" x2="10.007500721073583" y1="101.09737516637583" y2="101.16192664675087" /><path d="M 14.007167355692545 101.11028546245083 a86.0,86.0 0 0,1 10.666146001902534,-42.60595125391555" fill="none" id="id34" stroke="none" /><text fill="#e1ed5e" style="font-size:6.75px; font-family:Arial;" text-anchor="middle"><textPath startOffset="22.20632615414155" xlink:href="#id34">October</textPath></text><line stroke="#e1ed5e" stroke-width="0.3" x1="26.266209847984243" x2="21.928928074336255" y1="57.711370442889674" y2="55.22380399835377" /><path d="M 25.398753493254645 57.213857153982495 a86.0,86.0 0 0,1 29.58750427330803,-30.492523968695096" fill="none" id="id35" stroke="none" /><text fill="#e1ed5e" style="font-size:6.75px; font-family:Arial;" text-anchor="middle"><textPath startOffset="21.46611528233685" xlink:href="#id35">November</textPath></text><line stroke="#e1ed5e" stroke-width="0.3" x1="56.762969772571076" x2="54.21961505331055" y1="26.818313649435495" y2="22.513508569990535" /><path d="M 56.25429882871897 25.957352633546506 a86.0,86.0 0 0,1 42.265352541879196,-11.944610805530505" fill="none" id="id36" stroke="none" /><text fill="#e1ed5e" style="font-size:6.75px; font-family:Arial;" text-anchor="middle"><textPath startOffset="22.20632615414155" xlink:href="#id36">December</textPath></text></svg>